<?xml version="1.0" encoding="UTF-8"?>
<svg width="29px" height="50px" viewBox="0 0 29 50" version="1.1" xmlns="http://www.w3.org/2000/svg" xmlns:xlink="http://www.w3.org/1999/xlink">
    <!-- Generator: Sketch 44.1 (41455) - http://www.bohemiancoding.com/sketch -->
    <title>Group</title>
    <desc>Created with Sketch.</desc>
    <defs></defs>
    <g id="Page-1" stroke="none" stroke-width="1" fill="none" fill-rule="evenodd">
        <g id="Group" transform="translate(-11.000000, 0.000000)">
            <path d="M24.0921034,0.595661538 C24.0921034,0.649153846 23.7559553,0.684846154 23.3490395,0.684846154 L22.5882779,0.684846154 L22.6059755,1.48730769 C22.6059755,1.93312308 22.6413632,2.75343077 22.6767432,3.34192308 L22.7475184,4.39405385 L21.4206158,4.37623077 C20.6952342,4.37623077 20.0229379,4.37623077 19.9167826,4.35838462 C19.6337121,4.34053846 19.4744868,3.8769 19.3860216,2.82476923 C19.2091063,0.649153846 19.0675711,0.453 17.8998937,0.774 C17.5106679,0.881 16.4845334,1.00581538 15.5822289,1.05930769 C14.6976374,1.095 13.8837982,1.18415385 13.8130305,1.23764615 C13.5830376,1.38030769 13.6184176,1.87961538 13.9899534,3.11007692 C14.1668763,3.73423077 14.4853268,5.05386923 14.6976374,6.03466923 C15.7768495,10.9565385 16.1837653,12.3653077 16.5553011,12.3653077 C16.6614487,12.3653077 17.1214421,12.6328154 17.5991255,12.9359692 C18.3244995,13.4353077 18.4306547,13.5957692 18.3421895,13.9702769 C18.2891195,14.2199231 18.1652742,14.8619231 18.0591189,15.3969 C17.9706613,15.9318846 17.8114361,16.6095385 17.7229632,16.9126923 C17.6345132,17.198 17.5283579,17.9291538 17.4752803,18.5176462 C17.4222026,19.1061308 17.298365,19.8729231 17.1922097,20.2117692 C17.1037521,20.5505846 17.0152868,21.1033846 17.0152868,21.4243846 C17.0152868,21.7453846 16.9445192,22.1555385 16.8383716,22.3338692 C16.7499139,22.5121923 16.6083711,23.2433385 16.5022158,23.9744846 C16.4137658,24.7056154 16.2014553,25.8469231 16.04223,26.5424154 C15.8829895,27.2200769 15.6883842,28.2721923 15.5999342,28.8428462 C15.4053137,30.1803077 14.6268697,31.3572769 12.5568955,33.4615385 C11.6899863,34.3175385 11,35.1556615 11,35.3161538 C11,35.6014846 11,35.6014846 12.4861279,35.2091538 C12.8753537,35.12 13.2468895,35.0665 13.3353395,35.12 C13.4061147,35.1735 13.4238047,35.9046385 13.3707347,36.7606154 C13.3176571,37.6165923 13.2645795,40.666 13.2291995,43.5370769 C13.1938118,47.6743077 13.2291995,48.7977692 13.4238047,48.9582615 C13.5830376,49.0830769 17.2452874,49.1544231 25.4190061,49.1900769 C36.0872895,49.2257692 37.2195868,49.2079231 37.3257421,48.9404308 C37.3965097,48.7799231 37.4495874,45.6235385 37.4495874,41.9143077 L37.4318974,35.1735 L38.0688061,35.2983077 C39.0241805,35.4944846 39.5726316,35.4766538 39.5726316,35.2626615 C39.5726316,35.1378462 39.2364834,34.6741769 38.8295676,34.2105385 C38.4049542,33.7646923 38.0688061,33.3367154 38.0688061,33.2832308 C38.0688061,33.2297154 37.484975,32.4807385 36.7772911,31.6426154 C35.6096137,30.2516385 35.4680784,30.0019769 35.2557755,28.9498462 C35.0257826,27.7372308 34.6365568,25.8469231 34.3534711,24.4916385 C34.2650211,24.0458154 33.9819505,22.6013615 33.73426,21.2817308 C33.1327237,18.0004923 32.9204284,16.9840231 32.7435132,16.4668692 C32.6727379,16.2172308 32.495815,15.5039 32.3896674,14.8797692 L32.1773645,13.7206154 L32.8673508,13.1143077 C33.2388789,12.7754615 33.8581053,12.3118231 34.2296411,12.08 C34.7427045,11.7411769 34.8842474,11.5271769 34.8842474,11.1348462 C34.8842474,10.8495385 35.1319303,9.54773846 35.4326984,8.24592308 C35.7157689,6.92630769 36.0872895,5.21436154 36.22884,4.42971538 C36.3703753,3.64507692 36.5296005,2.80692308 36.5826782,2.55727692 C36.6357558,2.30761538 36.6888334,1.87961538 36.7065158,1.61213077 C36.7419034,1.11281538 36.7065158,1.095 35.8042342,1.02365385 C35.2026979,0.970153846 34.4242539,0.970153846 33.5219571,0.863153846 C32.8142732,0.791823077 32.1773645,0.738307692 32.1065968,0.756153846 C31.9650616,0.756153846 31.7350611,2.37894615 31.6819834,3.75207692 L31.6466034,4.51888462 L30.1250879,4.41188462 C29.2935587,4.34053846 28.4974171,4.19789231 28.3558895,4.09089231 C28.1612689,3.94823077 28.1435789,3.53807692 28.2143466,2.25411538 L28.3205018,0.595661538 L27.3120421,0.577846154 C26.7635987,0.577846154 25.8082395,0.56 25.1890132,0.542153846 C24.5874921,0.524330769 24.0921034,0.542153846 24.0921034,0.595661538 Z" id="Shape" fill="#000000" fill-rule="nonzero"></path>
            <path d="M27.4359026,1.29115385 C27.6305079,1.41596923 27.6482132,1.70130769 27.5597403,2.53943846 C27.4712826,3.37758462 27.4535926,3.94823077 27.4535926,4.09089231 C27.4535926,4.23356154 27.400515,4.34053846 27.3297474,4.34053846 C27.2412821,4.35838462 26.3213105,4.37623077 25.2420832,4.39405385 L23.2959618,4.42971538 L23.2075042,3.02092308 C23.1367289,1.98661538 23.1898066,1.5408 23.3490395,1.36246154 C23.63211,1.095 27.0289868,1.04148462 27.4359026,1.29115385 Z" id="Shape" fill="#F3F3F3" fill-rule="nonzero"></path>
            <path d="M34.4419439,1.57646154 C35.2203955,1.6478 35.9103895,1.73696154 35.9634595,1.77261538 C36.0872895,1.84396154 36.0342271,2.86043077 35.8926842,3.27058462 C35.8396142,3.41323077 35.7334589,3.85907692 35.6450013,4.25138462 L35.4857684,4.96469231 L34.4242539,4.92903846 C33.8581053,4.89338462 33.1327237,4.83987692 32.8142732,4.78638462 C32.2658221,4.69720769 32.2658221,4.66153846 32.1950545,3.57374615 C32.1596668,2.96743077 32.1950545,2.43246154 32.2658221,2.41461538 C32.3542797,2.37894615 32.4073574,2.11146154 32.4073574,1.80830769 C32.4073574,1.39815385 32.478125,1.30897692 32.7258079,1.38030769 C32.8850408,1.41596923 33.6635,1.52296923 34.4419439,1.57646154 Z" id="Shape" fill="#F3F3F3" fill-rule="nonzero"></path>
            <path d="M18.7314153,1.73696154 C18.6783453,1.87961538 18.7137253,2.57510769 18.8021829,3.27058462 C18.9437258,4.23356154 18.9260282,4.60804615 18.7844929,4.69720769 C18.6606553,4.76853846 17.8468237,4.87553846 16.9622168,4.92903846 C15.2460884,5.0182 14.7153274,4.85769231 14.7507074,4.19789231 C14.7683974,4.01956154 14.7153274,3.44892308 14.6268697,2.8961 L14.5030245,1.89746154 L15.3699337,1.71913077 C15.8299271,1.62996923 16.8029763,1.5408 17.5283579,1.52296923 C18.60757,1.46946154 18.8198805,1.52296923 18.7314153,1.73696154 Z" id="Shape" fill="#F3F3F3" fill-rule="nonzero"></path>
            <path d="M29.6827921,6.3735 L29.6297068,7.63961538 L25.5782237,7.63961538 L21.5267558,7.63961538 L21.4736858,6.56965385 C21.4559882,5.98117692 21.5090658,5.39269231 21.5798334,5.28569231 C21.6859887,5.1252 22.6236579,5.03603846 24.7997874,4.96469231 C26.4982105,4.91120769 27.8958884,4.83987692 27.9312684,4.80420769 C27.9666561,4.76853846 28.3912695,4.82203846 28.8689605,4.92903846 L29.7535521,5.10738462 L29.6827921,6.3735 Z" id="Shape" fill="#F3F3F3" fill-rule="nonzero"></path>
            <path d="M20.9783047,5.44619231 C21.0313824,5.678 21.08446,6.28433077 21.08446,6.78365385 C21.08446,7.92495385 21.1552276,7.88928462 18.0591189,7.97846154 L15.8299271,8.03194615 L15.5468489,6.855 C15.3699337,6.08815385 15.3345461,5.62451538 15.4407013,5.49969231 C15.5468489,5.39269231 16.4314558,5.26784615 17.4222026,5.21436154 C20.9959947,5.0182 20.8544595,5.0182 20.9783047,5.44619231 Z" id="Shape" fill="#F3F3F3" fill-rule="nonzero"></path>
            <path d="M34.3888663,5.33919231 C35.1850079,5.44619231 35.2026979,5.46402308 35.2734579,6.14166923 C35.3088532,6.534 35.2734579,6.83715385 35.2203955,6.83715385 C35.1496203,6.83715385 35.0434726,7.06897692 34.9726974,7.37213077 C34.9019374,7.65746154 34.7957821,7.94276923 34.7073245,7.99628462 C34.4950216,8.13894615 33.1504289,8.12111538 31.6112158,7.96061538 L30.1958632,7.81795385 L30.1427779,6.40915385 L30.0897079,5.00038462 L31.8412163,5.10738462 C32.7965832,5.17869231 33.9465553,5.28569231 34.3888663,5.33919231 Z" id="Shape" fill="#F3F3F3" fill-rule="nonzero"></path>
            <path d="M25.3128508,8.22810769 C25.3659284,8.33510769 25.4013237,9.01276923 25.3659284,9.7439 L25.2951684,11.0991923 L23.2428842,11.1526923 C22.1105868,11.1883538 20.8190795,11.1705385 20.3767684,11.1170231 C19.5275568,11.0278462 19.5452545,11.0635385 19.2444863,9.03058462 C19.1383311,8.29943846 19.1383311,8.28161538 19.7044797,8.22810769 C21.1729176,8.06761538 25.2243932,8.08546154 25.3128508,8.22810769 Z" id="Shape" fill="#F3F3F3" fill-rule="nonzero"></path>
            <path d="M31.3281453,8.37076923 C31.5050605,8.42426923 31.5404482,8.69176923 31.4519905,9.52992308 C31.2573776,11.2418462 31.4696805,11.1170231 28.5151147,11.0813615 L25.8789995,11.0278462 L25.8259218,9.77956154 C25.7905342,9.08407692 25.7905342,8.4421 25.8259218,8.33510769 C25.8789995,8.15676923 30.7619966,8.17461538 31.3281453,8.37076923 Z" id="Shape" fill="#F3F3F3" fill-rule="nonzero"></path>
            <path d="M18.8906482,8.69176923 C18.9437258,8.83442308 18.9967958,9.45857692 19.0144934,10.0827231 L19.0498658,11.2061923 L17.9352737,11.2953538 C16.6791387,11.4023538 16.6260763,11.3488462 16.3606882,10.3145385 C16.2545329,9.92223077 16.1130053,9.47640769 16.05992,9.31592308 C15.9891447,9.13758462 16.05992,8.90576923 16.2191605,8.72743077 C16.6083711,8.35292308 18.7491053,8.31727692 18.8906482,8.69176923 Z" id="Shape" fill="#F3F3F3" fill-rule="nonzero"></path>
            <path d="M33.8581053,8.5491 L34.6365568,8.6561 L34.4950216,9.49423077 C34.1234858,11.438 34.2827263,11.2775385 32.9911961,11.2418462 C32.3719774,11.2418462 31.8235263,11.1705385 31.7704487,11.0813615 C31.7173711,10.9921923 31.7173711,10.3680462 31.7881387,9.67256923 L31.9119763,8.4421 L32.495815,8.4421 C32.8142732,8.4421 33.4158018,8.49561538 33.8581053,8.5491 Z" id="Shape" fill="#F3F3F3" fill-rule="nonzero"></path>
            <path d="M26.5866834,11.652 C26.8166763,11.5806923 27.2059021,11.545 27.4535926,11.5806923 C27.7012755,11.5985154 28.2674242,11.6341769 28.7451,11.6341769 C29.3820316,11.652 29.5766368,11.7233385 29.5766368,11.9373385 C29.5766368,12.1513308 29.4704816,12.2048462 29.1520158,12.1156615 C28.7981853,12.0265 28.65665,12.1156615 28.3558895,12.6506462 C27.9843537,13.2748 27.6305079,13.3283077 27.6305079,12.7576462 C27.6305079,12.508 27.5951279,12.5258154 27.382825,12.8289769 C27.1705145,13.1321308 26.9051263,13.1856154 25.5251613,13.2213077 C24.1982587,13.2569615 23.8974905,13.2213077 23.8090329,12.9894615 C23.7028776,12.7398154 23.6675053,12.7398154 23.4728847,13.0251538 C23.2782718,13.2926154 23.2075042,13.2926154 22.9598137,13.0964615 C22.8005884,12.9538077 22.7121232,12.7041538 22.7652008,12.5436538 C22.8890461,12.1691538 22.1990597,11.9195 21.8452139,12.2048462 C21.5798334,12.4366538 21.2613753,12.2583077 21.2613753,11.9016692 C21.2613753,11.5093462 22.8359684,11.5628462 23.1367289,11.9551538 C23.3667295,12.2583077 23.3667295,12.2583077 23.3844195,11.9551538 C23.3844195,11.4558462 23.8798005,11.5985154 24.1805611,12.2048462 C24.3397939,12.508 24.5167092,12.7219769 24.5697868,12.6684615 C24.6051745,12.615 24.5520968,12.401 24.4459416,12.187 C24.1628711,11.652 24.4282516,11.4915154 25.3836184,11.652 C25.8082395,11.7055077 26.3389929,11.7055077 26.5866834,11.652 Z" id="Shape" fill="#F3F3F3" fill-rule="nonzero"></path>
            <path d="M19.0321834,11.9195 C19.3506416,12.2583077 19.4921768,12.2583077 19.4921768,11.9195 C19.4921768,11.759 19.5983245,11.7055077 19.7575574,11.759 C20.1467832,11.9195 20.0937132,12.0621538 19.4921768,12.401 C19.0852611,12.6328154 18.8375705,12.6684615 18.3598947,12.5258154 C17.6875908,12.3474923 17.4575903,12.1156615 17.6345132,11.8303385 C17.7937384,11.5628462 18.7314153,11.6163462 19.0321834,11.9195 Z" id="Shape" fill="#F3F3F3" fill-rule="nonzero"></path>
            <path d="M20.8544595,12.1156615 C20.6952342,12.2761538 20.3590861,12.0086692 20.4829237,11.7946692 C20.5536989,11.6876923 20.6598466,11.6876923 20.7836842,11.8125077 C20.8898395,11.9195 20.9252271,12.0443308 20.8544595,12.1156615 Z" id="Shape" fill="#F3F3F3" fill-rule="nonzero"></path>
            <path d="M30.4081584,11.866 C30.3727632,11.9908462 30.4081584,12.2583077 30.5143137,12.4544846 C30.6735389,12.7754615 30.6558489,12.7754615 30.4081584,12.5793077 C30.1781579,12.3831538 30.1073979,12.401 29.948165,12.7041538 C29.6827921,13.1856154 29.7004745,13.2569615 30.0720026,13.2569615 C30.3197008,13.2569615 30.3373908,13.2926154 30.1073979,13.4353077 C29.930475,13.5423077 29.7181721,13.5066154 29.4527916,13.3461308 C29.2404887,13.2034615 28.9220305,13.0786385 28.7804953,13.0786385 C28.6035724,13.0786385 28.5151147,12.9538077 28.5504947,12.7754615 C28.6212624,12.3653077 29.0458605,12.2583077 29.0458605,12.6684615 C29.0635658,12.9538077 29.0812558,12.9538077 29.2758763,12.7041538 C29.3997139,12.5614846 29.6297068,12.3831538 29.7889474,12.3118231 C29.9835526,12.2404923 30.0543203,12.0978462 30.0012426,11.9195 C29.930475,11.7411769 30.0012426,11.652 30.1958632,11.652 C30.3550808,11.652 30.4612361,11.759 30.4081584,11.866 Z" id="Shape" fill="#F3F3F3" fill-rule="nonzero"></path>
            <path d="M31.1335324,11.9908462 C31.18661,12.1335 31.11585,12.2048462 30.9743071,12.1513308 C30.8504618,12.1156615 30.7089342,11.973 30.6735389,11.8481538 C30.6204613,11.7055077 30.6912289,11.6341769 30.8327642,11.6876923 C30.9566095,11.7233385 31.0981447,11.866 31.1335324,11.9908462 Z" id="Shape" fill="#F3F3F3" fill-rule="nonzero"></path>
            <path d="M33.2919566,11.7233385 C33.2919566,11.759 33.1504289,11.9016692 32.9911961,12.0265 C32.7081255,12.2583077 32.6904279,12.2404923 32.9204284,11.9551538 C33.1504289,11.6698462 33.2919566,11.5806923 33.2919566,11.7233385 Z" id="Shape" fill="#F3F3F3" fill-rule="nonzero"></path>
            <path d="M21.4382982,12.8468077 C21.4382982,13.3104615 21.4206158,13.3104615 21.1375376,13.0251538 C20.8544595,12.7398154 20.8544595,12.6863077 21.08446,12.5436538 C21.4382982,12.3118231 21.4382982,12.3118231 21.4382982,12.8468077 Z" id="Shape" fill="#F3F3F3" fill-rule="nonzero"></path>
            <path d="M22.2167421,12.4723077 C22.4998203,12.5793077 22.6236579,13.2569615 22.358285,13.2569615 C22.1459821,13.2569615 21.7921363,12.8468077 21.7921363,12.5971538 C21.7921363,12.3296538 21.8275316,12.3296538 22.2167421,12.4723077 Z" id="Shape" fill="#F3F3F3" fill-rule="nonzero"></path>
            <path d="M20.5713889,12.8289769 C20.7836842,13.0964615 20.7660018,13.1143077 20.4121637,13.0073077 C20.1821632,12.9181538 20.0229379,12.9538077 20.0229379,13.0608 C20.0229379,13.3639615 19.5452545,13.2926154 19.4214092,12.9716385 C19.3329439,12.7398154 19.3860216,12.7041538 19.6690921,12.7754615 C19.8636974,12.8289769 20.0760079,12.7933077 20.1290855,12.7041538 C20.2529308,12.4901538 20.2883184,12.4901538 20.5713889,12.8289769 Z" id="Shape" fill="#F3F3F3" fill-rule="nonzero"></path>
            <path d="M31.3458353,12.6863077 C31.3458353,12.9181538 31.1335324,13.0786385 30.9566095,12.9716385 C30.7796942,12.8646385 30.9389195,12.5436538 31.18661,12.5436538 C31.2750676,12.5436538 31.3458353,12.615 31.3458353,12.6863077 Z" id="Shape" fill="#F3F3F3" fill-rule="nonzero"></path>
            <path d="M23.61442,13.5601231 C23.4905747,13.5957692 23.2428842,13.5957692 23.0836589,13.5601231 C22.9067361,13.5066154 23.0128913,13.4709538 23.2959618,13.4709538 C23.59673,13.4709538 23.7205676,13.5066154 23.61442,13.5601231 Z" id="Shape" fill="#F3F3F3" fill-rule="nonzero"></path>
            <path d="M27.5597403,15.0045769 C27.6658955,15.6643846 27.7189732,16.3063846 27.6658955,16.4133846 C27.6305079,16.5560385 27.2412821,16.6452 26.6397534,16.6452 C25.7551542,16.6452 25.4366961,16.4668692 25.8613095,16.1993846 C26.109,16.0388846 26.0912947,15.1650769 25.8259218,14.8975846 C25.5251613,14.5944231 24.9767026,14.6300769 24.5874921,14.9867462 C24.0213358,15.5039 24.0924163,16.3521538 24.8708526,16.3521538 C25.1539384,16.3521538 25.1716284,16.3878462 24.9593255,16.5304923 C24.5700921,16.798 23.2075042,16.6986923 23.1898066,16.4133846 C23.1367289,15.9853846 23.2251942,14.4161 23.3136518,14.1129231 C23.4198071,13.7562846 24.0744211,13.6671154 26.0559224,13.7562846 L27.382825,13.8097692 L27.5597403,15.0045769 Z" id="Shape" fill="#F3F3F3" fill-rule="nonzero"></path>
            <path d="M22.9421237,14.1842692 C22.8890461,14.4161 22.8182784,14.9689231 22.8005884,15.4503846 C22.7652008,15.9140538 22.6767432,16.3598769 22.5705879,16.4490385 C22.393665,16.6273846 18.6960353,16.7878462 18.5367947,16.6452 C18.4837324,16.5916923 18.58988,15.9853846 18.7668105,15.3077385 C19.1206411,13.8632769 19.1383311,13.8454615 21.5798334,13.8097692 C23.0128913,13.7919462 23.0305737,13.7919462 22.9421237,14.1842692 Z" id="Shape" fill="#F3F3F3" fill-rule="nonzero"></path>
            <path d="M31.0804547,13.9524615 C31.5404482,14.0416154 31.6289211,14.1664385 31.7704487,14.9154154 C31.8589063,15.4325692 32.0004416,15.7535385 32.1596668,15.7535385 C32.3012097,15.7535385 32.4073574,15.8248923 32.4073574,15.9318846 C32.4073574,16.0210538 32.3365974,16.1102308 32.2304421,16.1102308 C32.1419768,16.1102308 32.0535192,16.2706923 32.0535192,16.4668692 C32.0535192,16.7878462 31.9473639,16.8056923 30.2489332,16.7165385 C29.2404887,16.6808462 28.3558895,16.5560385 28.2851142,16.4846923 C28.0905013,16.2885385 27.8251132,15.0045769 27.8074308,14.2734308 L27.8074308,13.7919462 L29.1874111,13.8097692 C29.930475,13.8276154 30.7796942,13.8811154 31.0804547,13.9524615 Z" id="Shape" fill="#F3F3F3" fill-rule="nonzero"></path>
            <path d="M24.1982587,17.0018462 C24.6051745,17.0018462 24.6228645,17.0553538 24.6228645,18.2501538 L24.6228645,19.4984615 L23.6675053,19.4984615 C22.2344474,19.4984615 21.6506011,19.1774615 22.5528979,18.8743077 C22.9244184,18.7494615 22.9244184,18.7316385 22.4467426,18.6603077 C22.1282921,18.6068077 21.8098263,18.6959692 21.5975158,18.8921538 C21.11984,19.3201231 21.0313824,19.1239615 21.1552276,18.0004923 L21.2790729,17.0196923 L22.2875174,16.9483538 C22.8359684,16.9305385 23.4021171,16.9126923 23.5259624,16.9483538 C23.6675053,16.9840231 23.9682658,17.0018462 24.1982587,17.0018462 Z" id="Shape" fill="#F3F3F3" fill-rule="nonzero"></path>
            <path d="M20.7306142,18.7851538 L20.5183113,19.9977692 L19.3506416,20.0691 C18.1475842,20.1226154 17.8114361,19.9799231 18.0060413,19.4984615 C18.0591189,19.3557692 18.1475842,18.7673077 18.2006542,18.2144846 L18.3068095,17.198 L19.5629368,17.1445154 C20.4829237,17.1088462 20.8367695,17.1623538 20.8721571,17.3228462 C20.9075447,17.4476923 20.8367695,18.1074923 20.7306142,18.7851538 Z" id="Shape" fill="#F3F3F3" fill-rule="nonzero"></path>
            <path d="M29.2227911,17.4655077 C29.4350939,18.0004923 29.4527916,19.1417923 29.2758763,19.1417923 C29.1874111,19.1417923 29.0104882,19.0526154 28.8689605,18.9634615 C28.69203,18.8564615 28.4974171,18.8921538 28.2497342,19.1239615 C27.9843537,19.3736154 27.5243526,19.4806154 26.5336058,19.5341154 C25.7728442,19.5876154 25.1536255,19.5519462 25.1536255,19.4627692 C25.1536255,19.3914615 25.2420832,19.3201231 25.3305484,19.3201231 C25.4366961,19.3201231 25.5074637,18.9813077 25.5074637,18.5533077 C25.5074637,17.0018462 25.5074637,17.0018462 27.382825,17.0018462 C29.0104882,17.0018462 29.0635658,17.0196923 29.2227911,17.4655077 Z" id="Shape" fill="#F3F3F3" fill-rule="nonzero"></path>
            <path d="M32.1773645,17.4298462 C32.4427526,17.6616692 32.8319632,19.5876154 32.7081255,19.9442692 C32.6373579,20.0869231 32.3188921,20.1404308 31.6642934,20.0869231 C29.948165,19.9442692 29.9835526,19.9799231 29.8420174,18.8386385 C29.7889474,18.268 29.6827921,17.626 29.6297068,17.4298462 C29.5589316,17.0553538 29.5943268,17.0375385 30.7619966,17.1266923 C31.4166105,17.1801846 32.0712092,17.3228462 32.1773645,17.4298462 Z" id="Shape" fill="#F3F3F3" fill-rule="nonzero"></path>
            <path d="M28.1435789,20.8359231 C28.4797271,21.1569 28.6035724,21.4957231 28.6389447,22.1733846 L28.69203,23.065 L27.0997468,23.065 L25.5074637,23.065 L25.5074637,21.7453846 C25.5074637,20.2474308 25.5251613,20.2474308 26.9228316,20.3544231 C27.4712826,20.3900769 27.8605084,20.5505846 28.1435789,20.8359231 Z" id="Shape" fill="#F3F3F3" fill-rule="nonzero"></path>
            <path d="M32.6904279,20.5505846 C32.9204284,20.5684154 33.3981118,22.3516923 33.3804218,23.065 C33.3804218,23.5643308 33.4511895,23.5465 30.6735389,23.3146923 C29.2758763,23.1898462 29.1874111,23.1185154 28.9751158,21.9415385 C28.8689605,21.3708923 28.9220305,21.1925692 29.3112563,20.7824154 C29.7535521,20.3009231 29.8066297,20.3009231 31.1335324,20.4257692 C31.8765963,20.4792538 32.5842803,20.5505846 32.6904279,20.5505846 Z" id="Shape" fill="#F3F3F3" fill-rule="nonzero"></path>
            <path d="M21.1375376,20.6575846 C21.2083053,20.8002308 21.4206158,20.9250769 21.6152211,20.9250769 C22.1105868,20.9250769 22.2167421,21.2995615 22.0221368,22.3160385 L21.8806016,23.1541769 L19.810635,23.3325077 C17.5283579,23.5286692 16.7499139,23.8318231 18.6960353,23.7604923 L19.9344726,23.7248462 L19.8990926,25.0266154 C19.8814026,25.7577692 19.7752474,26.3819231 19.6514021,26.4532308 C19.3506416,26.6494077 16.9622168,26.8277385 16.8206816,26.6850769 C16.6968363,26.5602308 16.8206816,25.6507692 17.1214421,24.4916385 C17.1745197,24.2419769 17.2629774,23.7961538 17.280675,23.5108462 C17.3160474,23.2076923 17.4399079,22.6191923 17.5460632,22.1733846 C17.6522032,21.7275385 17.7583584,21.1569 17.7583584,20.9072308 C17.7760484,20.4614231 17.7937384,20.4435923 19.4037116,20.4079231 C20.7483118,20.3722615 21.0667624,20.4257692 21.1375376,20.6575846 Z" id="Shape" fill="#F3F3F3" fill-rule="nonzero"></path>
            <path d="M24.6582368,21.5670538 C24.6759421,22.2090385 24.6759421,22.8153538 24.6228645,22.8866923 C24.5344068,23.0293462 23.7028776,23.1185154 22.9067361,23.0828462 C22.5175026,23.065 22.4998203,22.9936923 22.4998203,21.7275385 L22.4998203,20.3900769 L23.5436447,20.3900769 L24.5874921,20.3900769 L24.6582368,21.5670538 Z" id="Shape" fill="#F3F3F3" fill-rule="nonzero"></path>
            <path d="M24.6582368,23.5465 C24.7467097,23.6 24.6582368,23.7961538 24.4636316,23.9744846 C23.9682658,24.4381538 24.0036458,24.7413077 24.5344068,25.0979538 C24.7997874,25.2762846 24.9767026,25.5616154 24.9767026,25.8112692 C24.9767026,26.2035923 24.905935,26.2214231 23.2605895,26.3284154 C22.3052074,26.3997692 21.2613753,26.4532308 20.9606147,26.4532308 L20.3767684,26.4532308 L20.3767684,25.0266154 L20.3767684,23.6178462 L21.7567563,23.5643308 C22.4998203,23.5286692 23.4374895,23.493 23.8090329,23.4751538 C24.1982587,23.4573385 24.5697868,23.4751538 24.6582368,23.5465 Z" id="Shape" fill="#F3F3F3" fill-rule="nonzero"></path>
            <path d="M30.2843132,23.7248462 C30.4258484,23.7604923 31.22199,23.814 32.0535192,23.8318231 L33.5573447,23.8674923 L33.8581053,25.3832769 C34.0173305,26.2035923 34.1411758,26.9169 34.1057958,26.9347385 C34.0880982,26.9525692 33.3981118,26.8633846 32.5665903,26.7207385 C31.0804547,26.4532308 30.0012426,26.3640769 26.9759016,26.3105846 L25.3305484,26.2749231 L25.3305484,25.7399231 C25.3305484,25.3832769 25.4190061,25.2049538 25.5959289,25.2049538 C26.0028447,25.2049538 26.2505353,24.5808 26.0382247,24.0458154 C25.9497671,23.7961538 25.8613095,23.5286692 25.8613095,23.493 C25.8613095,23.386 29.912785,23.5821538 30.2843132,23.7248462 Z" id="Shape" fill="#F3F3F3" fill-rule="nonzero"></path>
            <path d="M28.2320289,26.8277385 C28.2674242,26.8633846 28.3205018,27.4518846 28.3735718,28.1473846 L28.4266495,29.3956615 L25.7374642,29.3421538 L23.0305737,29.2886692 L23.0305737,28.0760385 C23.0305737,27.4162308 23.0659689,26.8277385 23.1190389,26.7742308 C23.2251942,26.6672308 28.1258889,26.7207385 28.2320289,26.8277385 Z" id="Shape" fill="#F3F3F3" fill-rule="nonzero"></path>
            <path d="M22.6413632,28.0046923 L22.5882779,29.1995 L21.9690592,29.3421538 C21.6329111,29.4135 20.8898395,29.5204923 20.3413961,29.574 C19.5983245,29.6631538 19.3152539,29.7701538 19.3152539,29.9663077 C19.3152539,30.1803077 19.5098668,30.1981538 20.4652337,30.1089769 C21.5444534,29.9841538 21.6152211,30.0019769 21.6152211,30.3408 C21.6152211,30.7331231 20.6598466,33.1940538 20.4298537,33.4080462 C20.1821632,33.6398769 17.1922097,33.8003846 17.1922097,33.5863846 C17.1922097,33.3902308 18.1121966,31.9279231 18.7844929,31.0541154 C19.0144934,30.7687923 19.0852611,30.5369615 18.9614158,30.4656154 C18.7137253,30.3229692 18.4483447,30.5013077 18.2360342,30.9649538 C18.1475842,31.1789462 17.8645061,31.6426154 17.6345132,31.9814231 C17.4045126,32.3202308 16.9975968,32.9087308 16.7499139,33.2653846 C16.4845334,33.6398769 16.1660753,33.9430308 16.02454,33.9430308 C15.8829895,33.9430308 15.7945395,33.9965385 15.8299271,34.0678462 C15.8829895,34.1570231 15.4053137,34.2283538 14.7683974,34.2461923 C14.1491711,34.2640231 13.52996,34.3531846 13.4061147,34.4601846 C13.2822695,34.5671769 13.1053542,34.5671769 12.9461289,34.478 C12.7338184,34.3353538 12.7338184,34.2818462 12.9638189,33.9965385 C13.1230442,33.8182 13.7422553,33.0692308 14.3614816,32.3380769 C15.1930184,31.3216154 15.6706942,30.9292846 16.2722229,30.6974615 C16.7145263,30.5369615 17.1214421,30.3943077 17.1745197,30.4121538 C17.2275974,30.4121538 17.5460632,30.4121538 17.8822037,30.3943077 C18.3068095,30.3764615 18.4483447,30.3051538 18.3775771,30.1268077 C18.3244995,30.0019769 18.3598947,29.8058154 18.4483447,29.7166538 C18.5545,29.6096538 18.6783453,28.9676923 18.7314153,28.2721923 L18.8375705,27.0060769 L19.6514021,26.9347385 C20.0937132,26.8990769 20.9606147,26.8633846 21.5798334,26.8455692 L22.6944332,26.8099231 L22.6413632,28.0046923 Z" id="Shape" fill="#F3F3F3" fill-rule="nonzero"></path>
            <path d="M31.6112158,27.0060769 C32.3012097,27.1130769 33.1150413,27.2200769 33.4334842,27.2557231 C33.7696553,27.2913846 34.0704158,27.3627231 34.1234858,27.3983846 C34.2296411,27.5232308 34.7073245,29.3421538 34.7073245,29.681 C34.7073245,29.9306462 34.5480916,29.9663077 33.7873376,29.9128154 C32.9735061,29.8593077 31.3812229,29.6631538 29.4704816,29.3778462 C28.8335653,29.2886692 28.69203,28.9855077 28.69203,27.6480462 L28.69203,26.8099231 L29.5412492,26.8099231 C30.0012426,26.8099231 30.9389195,26.8990769 31.6112158,27.0060769 Z" id="Shape" fill="#F3F3F3" fill-rule="nonzero"></path>
            <path d="M18.3598947,28.1830308 C18.1652742,29.8593077 18.1829642,29.8414846 17.0860621,29.8414846 C15.9891447,29.8414846 15.9714624,29.7701538 16.3429905,28.2900308 C16.6083711,27.2557231 16.7145263,27.1665615 17.7052808,27.1665615 L18.4660347,27.1665615 L18.3598947,28.1830308 Z" id="Shape" fill="#F3F3F3" fill-rule="nonzero"></path>
            <path d="M24.9767026,31.5177692 L24.9767026,33.2118846 L23.9682658,33.3188846 C23.4021171,33.3723846 22.6590455,33.4436923 22.3052074,33.4793846 C21.1906,33.5863846 21.11984,33.4258769 21.5975158,31.9457692 C22.3228974,29.788 22.1636721,29.9306462 23.6498,29.8771538 L24.9767026,29.8236538 L24.9767026,31.5177692 Z" id="Shape" fill="#F3F3F3" fill-rule="nonzero"></path>
            <path d="M28.0728113,30.2516385 C28.1966566,30.4121538 28.4620447,31.1254615 28.67434,31.8209231 C29.0635658,33.0335385 29.0635658,33.7290385 28.69203,33.4972308 C28.5858824,33.4258769 27.8781984,33.3545385 27.0997468,33.3367154 C26.3213105,33.3010538 25.6313089,33.2475385 25.5782237,33.1940538 C25.4543937,33.0513846 25.4720837,30.2338077 25.6136189,30.0019769 C25.8082395,29.681 27.8074308,29.895 28.0728113,30.2516385 Z" id="Shape" fill="#F3F3F3" fill-rule="nonzero"></path>
            <path d="M30.7266166,30.1268077 C31.22199,30.1981538 31.6642934,30.2516385 31.7350611,30.2338077 C31.8058211,30.2159692 31.8235263,30.3229692 31.7527511,30.4834615 C31.6996658,30.6439615 31.8765963,31.0362846 32.1773645,31.4107692 C32.7788932,32.1775846 33.71657,33.9430308 33.5219571,33.9430308 C33.2034989,33.9252 29.6827921,33.4080462 29.6474045,33.3545385 C29.6120168,33.3367154 29.3643263,32.6233846 29.0812558,31.7674308 C28.5328047,30.1089769 28.5681847,29.8058154 29.3820316,29.9306462 C29.6297068,29.9663077 30.2489332,30.0554615 30.7266166,30.1268077 Z" id="Shape" fill="#F3F3F3" fill-rule="nonzero"></path>
            <path d="M35.2734579,30.9471154 C35.6980789,31.4999231 35.8219242,31.6604308 37.0249816,33.0157231 C38.3518842,34.5136923 38.3695742,34.7276923 37.1488268,34.5671769 C36.6357558,34.4958462 36.0342271,34.371 35.8042342,34.2818462 C35.5742337,34.1926923 35.1673179,34.1213615 34.8842474,34.1213615 C34.5304016,34.1213615 34.2650211,33.9608462 34.0173305,33.6042077 C33.8050276,33.3188846 33.6457947,33.0157231 33.6457947,32.9265615 C33.6457947,32.8552308 33.3273442,32.3024154 32.9381184,31.7139231 C32.5488926,31.1254615 32.2304421,30.5726154 32.2304421,30.5013077 C32.2304421,30.4121538 32.8496684,30.3943077 33.6104147,30.4478 C34.7603868,30.5191308 35.0257826,30.6083077 35.2734579,30.9471154 Z" id="Shape" fill="#F3F3F3" fill-rule="nonzero"></path>
            <path d="M24.9944079,34.3353538 C25.0120903,34.8703385 24.9590126,36.7071154 24.9236326,36.7249538 C24.905935,36.7427692 23.8974905,36.8141154 22.6767432,36.8854615 C21.4559882,36.9389462 20.2883184,37.0459231 20.0760079,37.0994385 C19.6337121,37.2064385 19.5629368,37.0281077 19.4037116,35.334 L19.2798816,34.1391923 L19.8636974,34.0856923 C20.1998532,34.0500308 21.4736858,34.0143615 22.7298132,33.9786923 C24.9590126,33.9252 24.9767026,33.9252 24.9944079,34.3353538 Z" id="Shape" fill="#F3F3F3" fill-rule="nonzero"></path>
            <path d="M30.7796942,34.1926923 C30.9212295,34.2818462 30.9919895,34.8168462 30.9919895,35.7441538 L30.9919895,37.1707692 L29.8066297,37.0637692 C29.1343334,36.9924615 27.8958884,36.8854615 27.0112816,36.8319462 L25.4190061,36.7071154 L25.4013237,35.3161538 L25.3836184,33.9073846 L27.9666561,33.9786923 C29.3997139,34.0143615 30.6558489,34.1035385 30.7796942,34.1926923 Z" id="Shape" fill="#F3F3F3" fill-rule="nonzero"></path>
            <path d="M19.0675711,35.7441538 L19.0852611,37.1172769 L16.7145263,37.4204308 C14.2376439,37.7592538 13.1938118,38.1694077 15.2991737,38.0089231 L16.4668358,37.9019231 L16.5729911,38.6508923 C16.6437587,39.0432308 16.6614487,39.7030308 16.6260763,40.0775385 C16.5906811,40.5233385 16.6614487,40.7908462 16.8029763,40.8443308 C16.9622168,40.9156615 17.0152868,40.5411538 17.0152868,39.3998769 C17.0152868,38.5617308 17.1037521,37.8305846 17.1922097,37.7770769 C17.3868226,37.6522615 17.6168232,37.6344231 20.1644732,37.4204308 C21.7567563,37.2956154 21.7921363,37.2956154 21.7921363,37.6700769 C21.7921363,37.8840769 21.5975158,38.3655692 21.3498405,38.7222308 C20.7129242,39.6673846 20.8013895,40.0061923 21.4913758,39.2036923 L22.0752145,38.5439 L22.6236579,39.0075385 C22.9244184,39.2572308 23.2605895,39.4712077 23.3667295,39.4712077 C23.6498,39.4712077 23.59673,39.7565385 23.2605895,40.0953538 C23.0659689,40.2915154 22.8182784,40.3628462 22.5175026,40.2915154 C22.2698274,40.2201846 21.7390663,40.131 21.3498405,40.0775385 C20.7129242,39.9883538 20.6775442,40.0061923 20.9606147,40.238 C21.11984,40.3806923 21.2613753,40.5411538 21.2613753,40.5946923 C21.2613753,40.6481538 20.7660018,40.7373385 20.1644732,40.7908462 C17.7583584,40.987 17.0506745,41.0404923 15.5468489,41.1474923 L13.9899534,41.2723077 L13.9899534,39.0788846 C13.9899534,35.7263077 14.0253411,35.12 14.1491711,34.9773385 C14.3437916,34.7811538 17.3868226,34.3175385 18.2537395,34.3531846 L19.0498658,34.3888462 L19.0675711,35.7441538 Z" id="Shape" fill="#F3F3F3" fill-rule="nonzero"></path>
            <path d="M33.8227176,34.4958462 C34.6542468,34.6028462 35.5742337,34.7098462 35.8573042,34.7276923 C36.7419034,34.7811538 36.8303763,34.9238462 36.8303763,36.4396154 C36.8303763,37.2064385 36.7772911,37.8840769 36.7065158,37.9197692 C36.6180658,37.9732308 35.7688466,37.8484154 34.7957821,37.6700769 C33.8227176,37.4917692 32.7258079,37.3491 32.3719774,37.3312692 C31.9296816,37.3312692 31.6642934,37.2242692 31.5404482,37.0102769 C31.4166105,36.7606154 31.2573776,34.906 31.3281453,34.4245385 C31.3458353,34.2461923 32.0712092,34.2640231 33.8227176,34.4958462 Z" id="Shape" fill="#F3F3F3" fill-rule="nonzero"></path>
            <path d="M23.4551947,37.3312692 C24.0744211,37.5630769 24.0390258,37.9554154 23.3667295,38.2942308 C22.9421237,38.5082308 22.7475184,38.5260769 22.5705879,38.3833846 C22.2167421,38.0980769 22.2698274,37.3669231 22.6413632,37.2777692 C22.8005884,37.2242692 22.9598137,37.1886154 22.9775037,37.1707692 C22.9952013,37.1707692 23.2075042,37.2242692 23.4551947,37.3312692 Z" id="Shape" fill="#F3F3F3" fill-rule="nonzero"></path>
            <path d="M26.3389929,37.6879231 C26.3920705,37.8840769 26.4982105,38.0445769 26.5689858,38.0445769 C26.6397534,38.0445769 26.7459087,37.8840769 26.7989863,37.6879231 C26.8697539,37.4026154 27.0466692,37.3312692 27.6128179,37.3312692 C28.5681847,37.3312692 28.7097276,37.6879231 28.0374237,38.3655692 C27.3120421,39.0967154 26.5159158,39.6138692 26.2682253,39.5246923 C25.9143947,39.3998769 26.5512958,38.5617308 26.9405216,38.6152308 C27.1174368,38.6508923 27.2766697,38.5795615 27.3120421,38.4903846 C27.3474374,38.3833846 27.0997468,38.2942308 26.7812887,38.2585769 C26.2682253,38.2050769 26.17976,38.2585769 26.0205347,38.7578923 C25.8613095,39.2036923 25.7374642,39.3106923 25.3659284,39.2572308 C25.0120903,39.2215385 24.8882526,39.0432308 24.6936321,38.4190769 C24.5697868,37.9732308 24.4990192,37.5630769 24.5520968,37.4739231 C24.6051745,37.4026154 25.0120903,37.3312692 25.4543937,37.3312692 C26.0912947,37.3312692 26.2682253,37.4026154 26.3389929,37.6879231 Z" id="Shape" fill="#F3F3F3" fill-rule="nonzero"></path>
            <path d="M30.8504618,37.5987692 C31.8942863,37.6879231 33.2919566,37.8662308 33.7873376,37.9732308 C34.1588658,38.0445769 34.1765711,38.1337462 34.1765711,39.5425385 C34.1765711,40.345 34.1411758,41.0583077 34.0880982,41.1118231 C34.0350282,41.1474923 33.5396395,41.1296538 32.9911961,41.0583077 C32.3719774,40.9691538 31.8942863,40.987 31.7704487,41.094 C31.6289211,41.201 31.5404482,41.201 31.4873705,41.094 C31.4696805,41.0048462 30.9566095,40.88 30.3904684,40.8443308 C29.8243197,40.7908462 29.2935587,40.6481538 29.2051011,40.5233385 C29.0458605,40.2558462 29.3289463,39.8278462 29.6827921,39.8278462 C30.1781579,39.8278462 30.1250879,39.3998769 29.5058692,38.7757231 C28.6035724,37.8484154 28.65665,37.2242692 29.5943268,37.4204308 C29.8773974,37.4917692 30.4258484,37.5630769 30.8504618,37.5987692 Z" id="Shape" fill="#F3F3F3" fill-rule="nonzero"></path>
            <path d="M36.6357558,38.4903846 C36.9188263,38.7757231 36.9188263,41.0048462 36.6357558,41.3614846 C36.4588329,41.5754615 35.5742337,41.5754615 35.0257826,41.3436538 C34.8665421,41.2901538 34.6896421,41.0583077 34.6365568,40.8443308 C34.5127116,40.345 34.4950216,38.3120769 34.6188592,38.1872308 C34.7957821,38.0089231 36.3880653,38.2585769 36.6357558,38.4903846 Z" id="Shape" fill="#F3F3F3" fill-rule="nonzero"></path>
            <path d="M24.3397939,38.8470769 C24.6051745,39.2572308 24.6051745,39.2928769 24.2513211,39.4890385 C23.9328782,39.6495385 23.8090329,39.6138692 23.4905747,39.2928769 C23.1190389,38.9183846 23.1190389,38.9183846 23.4551947,38.6508923 C23.9328782,38.3120769 24.0036458,38.3299231 24.3397939,38.8470769 Z" id="Shape" fill="#F3F3F3" fill-rule="nonzero"></path>
            <path d="M29.1166434,39.0967154 C29.4174039,39.4176923 29.3997139,39.4533846 28.8158753,39.8991923 C28.1258889,40.4341769 27.7720432,40.4876923 27.4535926,40.0953538 C27.2589797,39.8635385 27.3120421,39.7208462 27.7189732,39.2928769 C28.3028042,38.6687308 28.69203,38.6152308 29.1166434,39.0967154 Z" id="Shape" fill="#F3F3F3" fill-rule="nonzero"></path>
            <path d="M24.9413226,40.0418462 C24.8882526,40.1666923 24.6936321,40.3628462 24.4990192,40.452 C24.3044063,40.559 24.1805611,40.7195 24.2159487,40.8443308 C24.3044063,41.1118231 23.9682658,41.308 23.8267229,41.0761538 C23.6498,40.7908462 23.9151805,40.1488462 24.1805611,40.2558462 C24.3044063,40.2915154 24.4636316,40.2201846 24.5167092,40.0775385 C24.6405545,39.7743615 25.0297803,39.7386923 24.9413226,40.0418462 Z" id="Shape" fill="#F3F3F3" fill-rule="nonzero"></path>
            <path d="M25.6843789,40.0953538 C25.5605413,40.238 25.4013237,40.3628462 25.3128508,40.3628462 C25.2243932,40.3628462 25.1536255,40.238 25.1536255,40.0953538 C25.1536255,39.9348462 25.3128508,39.8278462 25.5251613,39.8278462 C25.8436118,39.8278462 25.8613095,39.8635385 25.6843789,40.0953538 Z" id="Shape" fill="#F3F3F3" fill-rule="nonzero"></path>
            <path d="M22.5882779,41.2723077 C22.5882779,41.415 22.375975,41.5398154 22.1105868,41.5754615 C21.5975158,41.6289769 21.4913758,41.415 21.7213763,40.8086692 C21.8275316,40.559 21.8806016,40.559 22.2167421,40.773 C22.4113626,40.9156615 22.5882779,41.1474923 22.5882779,41.2723077 Z" id="Shape" fill="#F3F3F3" fill-rule="nonzero"></path>
            <path d="M28.9574105,40.8978462 C29.1166434,41.3793077 28.9397205,41.6111538 28.4089595,41.6111538 C28.1258889,41.6111538 27.9843537,41.5041538 27.9843537,41.2901538 C27.9843537,40.5946923 28.7628053,40.2736923 28.9574105,40.8978462 Z" id="Shape" fill="#F3F3F3" fill-rule="nonzero"></path>
            <path d="M25.6843789,41.0226615 C25.6843789,41.201 25.5782237,41.2544846 25.4013237,41.1831538 C25.2420832,41.1296538 25.0120903,41.0761538 24.8705474,41.0761538 C24.3751816,41.0761538 24.6405545,40.773 25.1536255,40.7551538 C25.5251613,40.7551538 25.6843789,40.8265 25.6843789,41.0226615 Z" id="Shape" fill="#F3F3F3" fill-rule="nonzero"></path>
            <path d="M26.5336058,40.9156615 C26.4982105,41.0226615 26.3920705,41.094 26.3036053,41.094 C26.2151553,41.094 26.109,41.0226615 26.0736124,40.9156615 C26.0382247,40.8086692 26.14438,40.7195 26.3036053,40.7195 C26.4628382,40.7195 26.5689858,40.8086692 26.5336058,40.9156615 Z" id="Shape" fill="#F3F3F3" fill-rule="nonzero"></path>
            <path d="M27.2766697,40.8978462 C27.2766697,40.987 27.2059021,41.0761538 27.0997468,41.0761538 C27.0112816,41.0761538 26.9228316,40.987 26.9228316,40.8978462 C26.9228316,40.7908462 27.0112816,40.7195 27.0997468,40.7195 C27.2059021,40.7195 27.2766697,40.7908462 27.2766697,40.8978462 Z" id="Shape" fill="#F3F3F3" fill-rule="nonzero"></path>
            <path d="M20.7836842,41.3971538 C20.1821632,41.4506462 20.1644732,41.5041538 20.1113955,42.6276154 C20.0937132,43.3052615 20.1998532,43.2339231 20.4652337,42.4492846 C20.6244666,41.9321538 20.6952342,41.8786154 21.2613753,41.9321538 C22.2875174,42.0213077 22.4998203,42.1461308 22.4998203,42.6097692 C22.4998203,43.0021 22.4290526,43.0377692 21.7567563,43.0377692 C21.3321429,43.0377692 20.8721571,43.1269231 20.7306142,43.2160769 C20.5183113,43.3587692 20.5360089,43.3944231 20.8190795,43.3944231 C21.1375376,43.3944231 21.1729176,43.4835923 21.11984,44.1077385 C21.0490724,44.8745385 20.7306142,45.0172308 20.0052479,44.6427231 C19.7044797,44.4822308 19.6690921,44.2503846 19.6690921,42.8594615 L19.6690921,41.2723077 L20.3413961,41.2188231 C20.6952342,41.1831538 21.08446,41.201 21.1729176,41.2544846 C21.2790729,41.308 21.08446,41.3614846 20.7836842,41.3971538 Z" id="Shape" fill="#F3F3F3" fill-rule="nonzero"></path>
            <path d="M31.3281453,41.3614846 C31.4166105,41.4328154 31.3989053,44.4643846 31.3104553,44.5535385 C31.2573776,44.6070769 30.0366226,44.6962308 29.6120168,44.6605385 C29.4527916,44.6427231 29.3997139,44.4465615 29.4350939,44.0542308 C29.4704816,43.5727692 29.5589316,43.4835923 29.8950874,43.5192538 C30.2666232,43.5727692 30.2843132,43.5370769 30.1604679,42.5384615 C30.1073979,41.9499692 29.930475,41.4328154 29.7712421,41.2901538 C29.5412492,41.094 29.6297068,41.0761538 30.3727632,41.1653077 C30.8681518,41.2366538 31.29275,41.3258154 31.3281453,41.3614846 Z" id="Shape" fill="#F3F3F3" fill-rule="nonzero"></path>
            <path d="M19.2798816,42.9129231 C19.3152539,44.0542308 19.2621763,44.4822308 19.1029511,44.5357231 C18.8198805,44.6427231 15.9714624,44.8745385 14.8922579,44.8923846 L14.0961087,44.9102308 L14.0430311,43.4300769 C14.0076434,42.3244615 14.0607211,41.9321538 14.2376439,41.8786154 C14.6091721,41.7181538 18.1121966,41.2901538 18.6960353,41.3258154 L19.2267963,41.3436538 L19.2798816,42.9129231 Z" id="Shape" fill="#F3F3F3" fill-rule="nonzero"></path>
            <path d="M24.1805611,41.9678 C24.0921034,42.1104615 23.9859482,42.1104615 23.8798005,42.0034615 C23.7736453,41.8964615 23.7559553,41.7181538 23.8267229,41.6111538 C23.9151805,41.4684615 24.0213358,41.4684615 24.1274911,41.5754615 C24.2336387,41.6824615 24.2513211,41.8608 24.1805611,41.9678 Z" id="Shape" fill="#F3F3F3" fill-rule="nonzero"></path>
            <path d="M26.5689858,41.8964615 C26.5689858,42.1817923 26.2859153,42.2353077 26.12669,41.9678 C25.9851395,41.7359692 26.19745,41.3971538 26.4097605,41.522 C26.4982105,41.5933077 26.5689858,41.7538077 26.5689858,41.8964615 Z" id="Shape" fill="#F3F3F3" fill-rule="nonzero"></path>
            <path d="M27.3651274,42.0213077 C27.0112816,42.2174615 26.8520639,42.0748 26.9935992,41.6824615 C27.0820568,41.4506462 27.1528245,41.4328154 27.382825,41.6289769 C27.6305079,41.8251538 27.6305079,41.8608 27.3651274,42.0213077 Z" id="Shape" fill="#F3F3F3" fill-rule="nonzero"></path>
            <path d="M35.0611626,41.7003077 C36.4942205,41.9321538 36.7419034,42.0569615 36.7242211,42.5562846 C36.7242211,42.8237692 36.7065158,43.5192538 36.6888334,44.1077385 L36.6534458,45.1955385 L35.6450013,45.1063846 C33.1327237,44.8923846 32.0358368,44.7675385 31.9827516,44.6605385 C31.9473639,44.6070769 31.8589063,43.8402308 31.8058211,42.9664385 L31.6819834,41.3793077 L33.1504289,41.5041538 C33.9642605,41.5754615 34.8134721,41.6646385 35.0611626,41.7003077 Z" id="Shape" fill="#F3F3F3" fill-rule="nonzero"></path>
            <path d="M23.3844195,41.7894615 C23.3844195,41.8786154 23.3136518,41.9678 23.2075042,41.9678 C23.1190389,41.9678 23.0305737,41.8786154 23.0305737,41.7894615 C23.0305737,41.6824615 23.1190389,41.6111538 23.2075042,41.6111538 C23.3136518,41.6111538 23.3844195,41.6824615 23.3844195,41.7894615 Z" id="Shape" fill="#F3F3F3" fill-rule="nonzero"></path>
            <path d="M24.9413226,41.8073077 C24.905935,41.9143077 24.7997874,41.9856154 24.7113221,41.9856154 C24.6228645,41.9856154 24.5167092,41.9143077 24.4813368,41.8073077 C24.4459416,41.7003077 24.5520968,41.6111538 24.7113221,41.6111538 C24.8705474,41.6111538 24.9767026,41.7003077 24.9413226,41.8073077 Z" id="Shape" fill="#F3F3F3" fill-rule="nonzero"></path>
            <path d="M25.6489989,41.8251538 C25.5428513,42.1461308 25.1536255,42.1996154 25.1536255,41.8964615 C25.1536255,41.7359692 25.2774632,41.6111538 25.4366961,41.6111538 C25.5959289,41.6111538 25.6843789,41.7003077 25.6489989,41.8251538 Z" id="Shape" fill="#F3F3F3" fill-rule="nonzero"></path>
            <path d="M29.7535521,42.5027692 C29.7535521,43.0199231 29.7358621,43.0377692 28.8689605,43.0377692 C28.0551289,43.0377692 27.9843537,43.0021 27.9843537,42.6276154 C27.9843537,42.0391308 28.1081913,41.9678 28.9927982,41.9678 C29.7181721,41.9678 29.7535521,41.9856154 29.7535521,42.5027692 Z" id="Shape" fill="#F3F3F3" fill-rule="nonzero"></path>
            <path d="M24.2336387,42.8237692 C24.2690263,42.9664385 24.1097934,43.0199231 23.7028776,42.9664385 C22.8890461,42.8594615 22.8890461,42.8416154 23.3844195,42.6811154 C23.9151805,42.5027692 24.1274911,42.5384615 24.2336387,42.8237692 Z" id="Shape" fill="#F3F3F3" fill-rule="nonzero"></path>
            <path d="M24.9767026,42.8772769 C24.9767026,42.9664385 24.8528574,43.0377692 24.7113221,43.0377692 C24.4459416,43.0377692 24.3574763,42.8237692 24.5520968,42.6276154 C24.6936321,42.4849538 24.9767026,42.6454615 24.9767026,42.8772769 Z" id="Shape" fill="#F3F3F3" fill-rule="nonzero"></path>
            <path d="M25.6843789,42.8772769 C25.6843789,42.9664385 25.5605413,43.0377692 25.4190061,43.0377692 C25.1536255,43.0377692 25.0651679,42.8237692 25.2597808,42.6276154 C25.4013237,42.4849538 25.6843789,42.6454615 25.6843789,42.8772769 Z" id="Shape" fill="#F3F3F3" fill-rule="nonzero"></path>
            <path d="M26.5336058,42.8059231 C26.4628382,43.1982615 26.14438,43.1626154 26.0736124,42.7881077 C26.0382247,42.6097692 26.12669,42.5027692 26.3036053,42.5027692 C26.4805282,42.5027692 26.5689858,42.6276154 26.5336058,42.8059231 Z" id="Shape" fill="#F3F3F3" fill-rule="nonzero"></path>
            <path d="M27.4181974,42.8237692 C27.4535926,42.9486154 27.3651274,43.0377692 27.2059021,43.0377692 C27.0466692,43.0377692 26.9228316,42.9129231 26.9228316,42.7524615 C26.9228316,42.4492846 27.3120421,42.5027692 27.4181974,42.8237692 Z" id="Shape" fill="#F3F3F3" fill-rule="nonzero"></path>
            <path d="M23.3490395,43.6975846 C23.3844195,43.9294077 23.3313495,44.1077385 23.2251942,44.1077385 C23.1190389,44.1077385 23.0305737,44.0185769 23.0305737,43.9115769 C23.0305737,43.7867462 22.8890461,43.5905846 22.7298132,43.4479231 C22.4290526,43.2339231 22.4467426,43.2160769 22.8536584,43.2517692 C23.1544342,43.2874308 23.3136518,43.4300769 23.3490395,43.6975846 Z" id="Shape" fill="#F3F3F3" fill-rule="nonzero"></path>
            <path d="M28.9574105,44.1077385 C28.9574105,44.6605385 28.9043329,44.7318846 28.5151147,44.7318846 C28.1789666,44.7318846 28.0551289,44.6248923 28.0197337,44.3217308 C27.9312684,43.6797692 28.1081913,43.3587692 28.5504947,43.4300769 C28.8866429,43.4657692 28.9574105,43.5905846 28.9574105,44.1077385 Z" id="Shape" fill="#F3F3F3" fill-rule="nonzero"></path>
            <path d="M22.4113626,44.1969231 C22.4113626,44.6427231 22.3406026,44.7318846 21.9690592,44.7318846 C21.5975158,44.7318846 21.5090658,44.6427231 21.4736858,44.1433846 C21.4206158,43.5905846 21.4382982,43.5549231 21.9159816,43.6084154 C22.3406026,43.6619231 22.4113626,43.7510769 22.4113626,44.1969231 Z" id="Shape" fill="#F3F3F3" fill-rule="nonzero"></path>
            <path d="M24.0921034,43.8402308 C24.0921034,43.9829231 24.0213358,44.1077385 23.9151805,44.1077385 C23.8267229,44.1077385 23.7382653,43.9829231 23.7382653,43.8402308 C23.7382653,43.6975846 23.8267229,43.5727692 23.9151805,43.5727692 C24.0213358,43.5727692 24.0921034,43.6975846 24.0921034,43.8402308 Z" id="Shape" fill="#F3F3F3" fill-rule="nonzero"></path>
            <path d="M24.7997874,43.8402308 C24.7997874,43.9829231 24.7290197,44.1077385 24.6228645,44.1077385 C24.5344068,44.1077385 24.4459416,43.9829231 24.4459416,43.8402308 C24.4459416,43.6975846 24.5344068,43.5727692 24.6228645,43.5727692 C24.7290197,43.5727692 24.7997874,43.6975846 24.7997874,43.8402308 Z" id="Shape" fill="#F3F3F3" fill-rule="nonzero"></path>
            <path d="M25.5428513,44.3217308 C25.6489989,45.1955385 25.4190061,45.6235385 25.1890132,45.0172308 C25.0297803,44.5535385 25.1182379,43.5727692 25.3305484,43.5727692 C25.4013237,43.5727692 25.5074637,43.9115769 25.5428513,44.3217308 Z" id="Shape" fill="#F3F3F3" fill-rule="nonzero"></path>
            <path d="M26.5689858,43.9294077 C26.5689858,44.1255692 26.4451405,44.2860769 26.3036053,44.2860769 C26.16207,44.2860769 26.0382247,44.1255692 26.0382247,43.9294077 C26.0382247,43.7332308 26.16207,43.5727692 26.3036053,43.5727692 C26.4451405,43.5727692 26.5689858,43.7332308 26.5689858,43.9294077 Z" id="Shape" fill="#F3F3F3" fill-rule="nonzero"></path>
            <path d="M27.4535926,43.8402308 C27.4535926,43.9829231 27.3297474,44.1077385 27.1882121,44.1077385 C27.0466692,44.1077385 26.9228316,43.9829231 26.9228316,43.8402308 C26.9228316,43.6975846 27.0466692,43.5727692 27.1882121,43.5727692 C27.3297474,43.5727692 27.4535926,43.6975846 27.4535926,43.8402308 Z" id="Shape" fill="#F3F3F3" fill-rule="nonzero"></path>
            <path d="M23.2075042,44.7675385 C23.2075042,45.2312077 23.1898066,45.2312077 22.9598137,44.8923846 C22.7652008,44.6427231 22.7652008,44.5178923 22.9067361,44.4287308 C23.2075042,44.2325692 23.2075042,44.2325692 23.2075042,44.7675385 Z" id="Shape" fill="#F3F3F3" fill-rule="nonzero"></path>
            <path d="M27.4181974,44.7675385 C27.3297474,45.2133846 26.9228316,45.2668692 26.9228316,44.8388846 C26.9228316,44.6248923 27.0289868,44.4643846 27.2059021,44.4643846 C27.3651274,44.4643846 27.4535926,44.5892308 27.4181974,44.7675385 Z" id="Shape" fill="#F3F3F3" fill-rule="nonzero"></path>
            <path d="M24.1628711,44.9458769 C24.2690263,45.1955385 24.3044063,45.1955385 24.5344068,44.8923846 C24.7820974,44.5535385 24.7820974,44.5535385 24.7997874,44.9102308 C24.7997874,45.1955385 24.6759421,45.2846923 24.2867163,45.3203846 C23.7382653,45.3560385 23.4551947,45.1420385 23.6498,44.8210538 C23.8090329,44.5535385 24.0390258,44.6070769 24.1628711,44.9458769 Z" id="Shape" fill="#F3F3F3" fill-rule="nonzero"></path>
            <path d="M26.5689858,44.9993846 C26.5689858,45.1955385 26.4628382,45.3560385 26.3213105,45.3560385 C26.0028447,45.3560385 25.8082395,45.0706923 25.9497671,44.8210538 C26.14438,44.5000769 26.5689858,44.6248923 26.5689858,44.9993846 Z" id="Shape" fill="#F3F3F3" fill-rule="nonzero"></path>
            <path d="M19.9167826,45.2846923 C20.0937132,45.4452 20.1998532,45.8731846 20.1998532,46.3546923 C20.1998532,47.0858154 20.2352408,47.1393077 20.6598466,47.1393077 C21.0667624,47.1393077 21.10215,47.1928154 21.0490724,47.7991308 L20.9959947,48.4767692 L19.1560211,48.5302769 C18.0414289,48.5659231 17.2452874,48.5124615 17.1214421,48.3876154 C16.9268368,48.1914615 16.7499139,45.6591923 16.9091316,45.2490385 C17.0506745,44.8745385 19.5452545,44.8923846 19.9167826,45.2846923 Z" id="Shape" fill="#F3F3F3" fill-rule="nonzero"></path>
            <path d="M16.4845334,46.8718231 L16.4845334,48.5837692 L15.2991737,48.5302769 L14.0961087,48.4767692 L14.0961087,46.961 L14.0961087,45.4452 L14.7153274,45.3382 C15.0514755,45.2668692 15.5999342,45.2133846 15.9183847,45.1955385 L16.4845334,45.1776923 L16.4845334,46.8718231 Z" id="Shape" fill="#F3F3F3" fill-rule="nonzero"></path>
            <path d="M29.7181721,45.3916923 C29.8243197,45.5165385 29.8597074,45.8375385 29.8066297,46.105 C29.7181721,46.5686692 29.6474045,46.6043308 28.8512553,46.6043308 C27.8781984,46.6043308 27.7720432,46.4973385 27.9135861,45.7305385 C28.0197337,45.2133846 28.0728113,45.1776923 28.7804953,45.1776923 C29.1874111,45.1776923 29.6120168,45.2846923 29.7181721,45.3916923 Z" id="Shape" fill="#F3F3F3" fill-rule="nonzero"></path>
            <path d="M33.1681189,45.3382 L33.8227176,45.3560385 L33.8227176,46.961 L33.8227176,48.5659231 L31.6289211,48.5659231 C30.4081584,48.5659231 29.3820316,48.5124615 29.3466363,48.4232769 C29.2935587,48.3519462 29.3112563,48.0309538 29.3466363,47.7099692 C29.4174039,47.2998154 29.5766368,47.068 29.8597074,46.961 C30.2135455,46.8183077 30.2843132,46.6756615 30.2843132,45.9801846 L30.2843132,45.1598769 L31.3989053,45.2490385 C32.0004416,45.2846923 32.7965832,45.3382 33.1681189,45.3382 Z" id="Shape" fill="#F3F3F3" fill-rule="nonzero"></path>
            <path d="M22.4113626,45.9801846 C22.4113626,46.4973385 22.393665,46.5151538 21.5267558,46.5151538 C20.6598466,46.5151538 20.6421566,46.5151538 20.5890789,45.9266923 L20.5360089,45.3382 L21.4736858,45.3916923 C22.393665,45.4452 22.4113626,45.4630308 22.4113626,45.9801846 Z" id="Shape" fill="#F3F3F3" fill-rule="nonzero"></path>
            <path d="M35.8396142,45.5343846 C36.4942205,45.5343846 36.7065158,45.8196923 36.6888334,46.6221538 C36.6711358,47.0323077 36.7419034,47.4781538 36.8480587,47.6029692 C36.9719039,47.7634615 36.9895939,47.8526154 36.8657487,47.8526154 C36.7772911,47.8526154 36.6534458,48.0131231 36.6003605,48.2271154 C36.5119105,48.5481077 36.3880653,48.5837692 35.4680784,48.5302769 L34.4419439,48.4767692 L34.3888663,46.8896538 L34.3357887,45.3025385 L34.9019374,45.4273846 C35.2026979,45.4808462 35.6273113,45.5343846 35.8396142,45.5343846 Z" id="Shape" fill="#F3F3F3" fill-rule="nonzero"></path>
            <path d="M25.0297803,45.6591923 C24.905935,45.6948462 24.7997874,45.9088462 24.7820974,46.1228462 C24.7820974,46.3368462 24.7290197,46.4081538 24.6759421,46.2833385 C24.5520968,45.9623538 24.7467097,45.5343846 25.0120903,45.5521923 C25.1890132,45.5521923 25.1890132,45.5878462 25.0297803,45.6591923 Z" id="Shape" fill="#F3F3F3" fill-rule="nonzero"></path>
            <path d="M27.4535926,46.5151538 C27.4535926,47.3176462 27.2235921,47.7099692 27.0289868,47.2284615 C26.8874439,46.8361538 26.5689858,46.9074923 26.5689858,47.3176462 C26.5689858,47.5494615 26.4451405,47.6743077 26.2151553,47.6743077 C25.9674571,47.6743077 25.8966895,47.5851538 25.9851395,47.3533077 C26.0559224,47.1928154 26.17976,46.9788231 26.2859153,46.9074923 C26.4274505,46.8004923 26.4097605,46.7291538 26.2682253,46.6578462 C25.9497671,46.533 25.9851395,45.891 26.2859153,45.891 C26.4097605,45.891 26.5866834,46.0693462 26.6574511,46.2833385 C26.7812887,46.6756615 26.7812887,46.6756615 26.8697539,46.3368462 C27.0112816,45.6591923 27.0997468,45.5165385 27.2766697,45.6235385 C27.3651274,45.6770231 27.4535926,46.0871769 27.4535926,46.5151538 Z" id="Shape" fill="#F3F3F3" fill-rule="nonzero"></path>
            <path d="M23.1544342,46.2833385 C23.1013489,46.426 23.0482789,46.3725077 23.0482789,46.1763462 C23.0305737,45.9801846 23.0836589,45.8731846 23.1367289,45.9445385 C23.1898066,45.998 23.2075042,46.1585154 23.1544342,46.2833385 Z" id="Shape" fill="#F3F3F3" fill-rule="nonzero"></path>
            <path d="M24.1628711,46.1585154 C24.2159487,46.319 24.1628711,46.426 24.0036458,46.426 C23.8621105,46.426 23.7382653,46.3011538 23.7382653,46.1585154 C23.7382653,46.0158462 23.8090329,45.891 23.8974905,45.891 C23.9859482,45.891 24.0921034,46.0158462 24.1628711,46.1585154 Z" id="Shape" fill="#F3F3F3" fill-rule="nonzero"></path>
            <path d="M25.6843789,46.1406923 C25.6843789,46.2833385 25.6136189,46.4616692 25.5074637,46.5151538 C25.4190061,46.5686692 25.3305484,46.5865 25.3305484,46.533 C25.3305484,46.4973385 25.2774632,46.3368462 25.2243932,46.1763462 C25.1536255,45.9801846 25.2067032,45.891 25.4013237,45.891 C25.5605413,45.891 25.6843789,45.998 25.6843789,46.1406923 Z" id="Shape" fill="#F3F3F3" fill-rule="nonzero"></path>
            <path d="M23.2959618,47.1214846 C23.4728847,47.4246385 23.1367289,47.4781538 22.7652008,47.2106462 C22.4467426,46.961 22.4467426,46.961 22.8005884,46.961 C23.0128913,46.961 23.2251942,47.0323077 23.2959618,47.1214846 Z" id="Shape" fill="#F3F3F3" fill-rule="nonzero"></path>
            <path d="M24.1805611,47.3176462 C24.4990192,47.6564615 24.4813368,47.6743077 24.1274911,47.6743077 C23.8621105,47.6743077 23.7382653,47.5673077 23.7382653,47.3176462 C23.7382653,47.1214846 23.7736453,46.961 23.7913429,46.961 C23.8267229,46.961 24.0036458,47.1214846 24.1805611,47.3176462 Z" id="Shape" fill="#F3F3F3" fill-rule="nonzero"></path>
            <path d="M24.8882526,47.1214846 C24.9413226,47.2106462 24.905935,47.3354615 24.7997874,47.4068077 C24.7113221,47.4603077 24.6228645,47.3889769 24.6228645,47.2463077 C24.6228645,46.9253077 24.7290197,46.8718231 24.8882526,47.1214846 Z" id="Shape" fill="#F3F3F3" fill-rule="nonzero"></path>
            <path d="M25.6843789,47.3354615 C25.6843789,47.4246385 25.6136189,47.4959692 25.5074637,47.4959692 C25.4190061,47.4959692 25.3305484,47.3711538 25.3305484,47.2106462 C25.3305484,47.068 25.4190061,46.9966538 25.5074637,47.0501538 C25.6136189,47.1036538 25.6843789,47.2284615 25.6843789,47.3354615 Z" id="Shape" fill="#F3F3F3" fill-rule="nonzero"></path>
            <path d="M22.4113626,47.7278 C22.4290526,48.2984615 22.375975,48.4054615 21.8452139,48.6907692 C21.5975158,48.8334308 21.4206158,48.8512692 21.3498405,48.7442692 C21.2967553,48.6372769 21.3321429,48.5659231 21.4206158,48.5659231 C21.5444534,48.5659231 21.5798334,48.2806154 21.5267558,47.8348 C21.4382982,47.1393077 21.4382982,47.1214846 21.9159816,47.175 C22.3228974,47.2106462 22.4113626,47.3176462 22.4113626,47.7278 Z" id="Shape" fill="#F3F3F3" fill-rule="nonzero"></path>
            <path d="M28.8689605,47.8526154 C28.8689605,48.4946154 28.8335653,48.5659231 28.4266495,48.5659231 C28.0374237,48.5659231 27.9843537,48.4946154 27.9843537,47.8526154 C27.9843537,47.2106462 28.0374237,47.1393077 28.4266495,47.1393077 C28.8335653,47.1393077 28.8689605,47.2106462 28.8689605,47.8526154 Z" id="Shape" fill="#F3F3F3" fill-rule="nonzero"></path>
            <path d="M25.5959289,48.0309538 C25.6489989,48.1201231 25.6313089,48.2092846 25.5251613,48.2092846 C25.4366961,48.2092846 25.2951684,48.1201231 25.2420832,48.0309538 C25.1890132,47.9239615 25.2067032,47.8526154 25.3128508,47.8526154 C25.4013237,47.8526154 25.5428513,47.9239615 25.5959289,48.0309538 Z" id="Shape" fill="#F3F3F3" fill-rule="nonzero"></path>
            <path d="M26.6397534,48.0131231 C26.6928311,48.1023077 26.9051263,48.1379538 27.0997468,48.0844615 C27.2943597,48.0309538 27.4535926,48.0844615 27.4535926,48.1914615 C27.4535926,48.2984615 27.2589797,48.3876154 27.0112816,48.3876154 C26.7635987,48.3876154 26.5159158,48.3876154 26.4451405,48.4054615 C26.3566829,48.4054615 26.2859153,48.2806154 26.2505353,48.1379538 C26.17976,47.8348 26.4805282,47.7456154 26.6397534,48.0131231 Z" id="Shape" fill="#F3F3F3" fill-rule="nonzero"></path>
            <path d="M23.2251942,48.2627692 C23.2075042,48.4767692 22.9598137,48.4232769 22.8890461,48.1914615 C22.8359684,48.0844615 22.9067361,48.0131231 23.0305737,48.0487692 C23.1367289,48.1023077 23.2251942,48.1914615 23.2251942,48.2627692 Z" id="Shape" fill="#F3F3F3" fill-rule="nonzero"></path>
            <path d="M24.0921034,48.2984615 C24.0921034,48.4411154 24.0213358,48.5659231 23.9151805,48.5659231 C23.8267229,48.5659231 23.7382653,48.4411154 23.7382653,48.2984615 C23.7382653,48.1557692 23.8267229,48.0309538 23.9151805,48.0309538 C24.0213358,48.0309538 24.0921034,48.1557692 24.0921034,48.2984615 Z" id="Shape" fill="#F3F3F3" fill-rule="nonzero"></path>
            <path d="M36.9188263,48.7442692 C36.9719039,48.8334308 36.9365163,48.9226154 36.8480587,48.9226154 C36.7419034,48.9226154 36.6534458,48.8334308 36.6534458,48.7442692 C36.6534458,48.6372769 36.6888334,48.5659231 36.7242211,48.5659231 C36.7772911,48.5659231 36.8657487,48.6372769 36.9188263,48.7442692 Z" id="Shape" fill="#F3F3F3" fill-rule="nonzero"></path>
            <path d="M33.2919566,2.37894615 C33.2919566,2.46810769 33.6104147,2.55727692 33.9996405,2.55727692 C34.3888663,2.55727692 34.7073245,2.46810769 34.7073245,2.37894615 C34.7073245,2.27194615 34.3888663,2.20061538 33.9996405,2.20061538 C33.6104147,2.20061538 33.2919566,2.27194615 33.2919566,2.37894615 Z" id="Shape" fill="#000000" fill-rule="nonzero"></path>
            <path d="M35.0965579,2.39676923 C35.1319303,2.52161538 35.2734579,2.66426923 35.3973184,2.69992308 C35.5388461,2.75343077 35.6096137,2.6821 35.5565437,2.53943846 C35.5211561,2.41461538 35.3796132,2.27194615 35.2557755,2.23628462 C35.1142403,2.18276923 35.0434726,2.25411538 35.0965579,2.39676923 Z" id="Shape" fill="#000000" fill-rule="nonzero"></path>
            <path d="M33.0265684,3.09226154 C32.6019703,3.27058462 32.5312026,3.25276923 34.1411758,3.34192308 C34.8488597,3.39541538 35.4150008,3.34192308 35.4150008,3.25276923 C35.4150008,3.16359231 35.2380855,3.09226154 35.0257826,3.09226154 C34.7957821,3.09226154 34.3357887,3.05659231 33.9996405,3.00307692 C33.6635,2.96743077 33.2211889,3.00307692 33.0265684,3.09226154 Z" id="Shape" fill="#000000" fill-rule="nonzero"></path>
            <path d="M32.9911961,4.00173077 C32.7965832,4.07307692 33.0796537,4.16223077 33.73426,4.26923077 C35.1142403,4.46538462 35.0611626,4.46538462 35.0611626,4.25138462 C35.0788526,4.03738462 33.4334842,3.84123077 32.9911961,4.00173077 Z" id="Shape" fill="#000000" fill-rule="nonzero"></path>
            <path d="M15.9183847,2.14711538 C15.5468489,2.18276923 15.2460884,2.28976923 15.2460884,2.36111538 C15.2460884,2.48593846 17.7229632,2.25411538 17.8822037,2.11146154 C17.9706613,2.02230769 16.9799068,2.04012308 15.9183847,2.14711538 Z" id="Shape" fill="#000000" fill-rule="nonzero"></path>
            <path d="M16.5729911,3.11007692 C16.2899205,3.19925385 15.9006947,3.23492308 15.7414618,3.19925385 C15.5645466,3.16359231 15.3699337,3.21707692 15.2991737,3.32407692 C15.2283984,3.44892308 15.4583913,3.46674615 16.04223,3.39541538 C16.5022158,3.32407692 17.1568297,3.27058462 17.4929779,3.27058462 C17.8468237,3.27058462 18.0591189,3.19925385 17.9883513,3.09226154 C17.8645061,2.87826154 17.298365,2.87826154 16.5729911,3.11007692 Z" id="Shape" fill="#000000" fill-rule="nonzero"></path>
            <path d="M16.5906811,3.96607692 C15.7591595,4.03738462 15.3345461,4.16223077 15.2814684,4.32272308 C15.2283984,4.48323077 15.2814684,4.53671538 15.4583913,4.48323077 C15.5999342,4.41188462 16.2545329,4.32272308 16.8914492,4.25138462 C17.5460632,4.18007692 18.0768166,4.05523077 18.0768166,3.96607692 C18.0768166,3.8769 18.0237389,3.82338462 17.9529789,3.84123077 C17.8645061,3.85907692 17.2629774,3.91256923 16.5906811,3.96607692 Z" id="Shape" fill="#000000" fill-rule="nonzero"></path>
            <path d="M19.810635,5.69584615 C19.7575574,5.74934615 18.9083382,5.785 17.9529789,5.80284615 C16.3076105,5.80284615 15.5468489,5.94550769 15.8122295,6.213 C15.9891447,6.39133077 20.3767684,5.92769231 20.3767684,5.74934615 C20.3767684,5.57102308 19.9521703,5.53535385 19.810635,5.69584615 Z" id="Shape" fill="#000000" fill-rule="nonzero"></path>
            <path d="M17.5106679,6.80148462 C16.4845334,6.83715385 16.1306876,6.92630769 16.05992,7.14030769 C15.9891447,7.31863846 16.02454,7.38996923 16.1837653,7.31863846 C16.3253005,7.26515385 17.3160474,7.17596923 18.3952671,7.10463846 C19.4921768,7.03330769 20.3767684,6.90847692 20.3767684,6.83715385 C20.3767684,6.69448462 19.9167826,6.69448462 17.5106679,6.80148462 Z" id="Shape" fill="#000000" fill-rule="nonzero"></path>
            <path d="M30.9919895,6.106 C30.9919895,6.23084615 31.3812229,6.30215385 32.1065968,6.30215385 C32.7081255,6.30215385 33.5042671,6.3735 33.8757953,6.46266154 C34.2827263,6.56965385 34.5657816,6.55182308 34.6365568,6.44484615 C34.8134721,6.1595 34.6719368,6.12384615 32.7965832,6.01684615 C31.4873705,5.92769231 30.9919895,5.94550769 30.9919895,6.106 Z" id="Shape" fill="#000000" fill-rule="nonzero"></path>
            <path d="M30.9919895,7.14030769 C30.9919895,7.22946154 31.4166105,7.3008 31.9296816,7.31863846 C32.4250474,7.33646154 33.1858089,7.4078 33.6104147,7.46130769 C34.2119434,7.55046154 34.3534711,7.5148 34.3534711,7.3008 C34.3534711,7.06897692 34.0704158,7.01546154 32.6727379,7.01546154 C31.7527511,7.01546154 30.9919895,7.06897692 30.9919895,7.14030769 Z" id="Shape" fill="#000000" fill-rule="nonzero"></path>
            <path d="M19.7752474,8.92359231 C19.5452545,9.15541538 19.8814026,9.24457692 20.8898395,9.19107692 C21.4913758,9.15541538 21.9690592,9.04841538 21.9690592,8.97707692 C21.9690592,8.79876923 19.9344726,8.76307692 19.7752474,8.92359231 Z" id="Shape" fill="#000000" fill-rule="nonzero"></path>
            <path d="M20.0229379,10.1183846 C20.0229379,10.3145385 20.1467832,10.3502308 20.6067842,10.2253846 C20.9075447,10.1362308 21.3321429,10.0292308 21.5267558,9.99356154 C21.7213763,9.94007692 21.4559882,9.90438462 20.9606147,9.88656154 C20.2529308,9.86873077 20.0229379,9.94007692 20.0229379,10.1183846 Z" id="Shape" fill="#000000" fill-rule="nonzero"></path>
            <path d="M16.6614487,9.31592308 C16.6614487,9.61907692 16.9091316,9.65473846 17.5460632,9.40507692 L18.1652742,9.19107692 L17.4222026,9.17323077 C16.9975968,9.15541538 16.6614487,9.22674615 16.6614487,9.31592308 Z" id="Shape" fill="#000000" fill-rule="nonzero"></path>
            <path d="M16.8383716,10.4037154 C16.8383716,10.6176923 17.6168232,10.6176923 18.2537395,10.4037154 C18.60757,10.2967154 18.5014224,10.2610538 17.7760484,10.2432308 C17.2629774,10.2253846 16.8383716,10.2967154 16.8383716,10.4037154 Z" id="Shape" fill="#000000" fill-rule="nonzero"></path>
            <path d="M32.6373579,9.10192308 C32.1950545,9.28023077 32.4250474,9.51207692 33.0265684,9.51207692 C33.3627395,9.51207692 33.6457947,9.42292308 33.6457947,9.33374615 C33.6457947,9.22674615 33.5750347,9.15541538 33.4865695,9.15541538 C33.3981118,9.15541538 33.2211889,9.11976923 33.0796537,9.08407692 C32.9558237,9.03058462 32.7435132,9.04841538 32.6373579,9.10192308 Z" id="Shape" fill="#000000" fill-rule="nonzero"></path>
            <path d="M32.3365974,10.1897154 C32.2835121,10.2788846 32.5135126,10.4037154 32.8673508,10.4393846 C33.2034989,10.4750462 33.5219571,10.4393846 33.5750347,10.3680462 C33.6281124,10.2967154 33.5573447,10.2253846 33.4334842,10.2253846 C33.3096542,10.2253846 33.0265684,10.1718846 32.8319632,10.1183846 C32.6196526,10.0648923 32.4073574,10.1005385 32.3365974,10.1897154 Z" id="Shape" fill="#000000" fill-rule="nonzero"></path>
            <path d="M25.7905342,12.294 C25.7197742,12.4544846 25.7197742,12.6328154 25.7728442,12.6863077 C25.8082395,12.7398154 25.8966895,12.6328154 25.9674571,12.4723077 C26.0382247,12.3118231 26.0382247,12.1335 25.9851395,12.08 C25.9497671,12.0265 25.8613095,12.1335 25.7905342,12.294 Z" id="Shape" fill="#000000" fill-rule="nonzero"></path>
            <path d="M26.5689858,12.294 C26.5689858,12.4366538 26.6574511,12.508 26.7459087,12.4544846 C26.8520639,12.401 26.9228316,12.2761538 26.9228316,12.1691538 C26.9228316,12.08 26.8520639,12.0086692 26.7459087,12.0086692 C26.6574511,12.0086692 26.5689858,12.1335 26.5689858,12.294 Z" id="Shape" fill="#000000" fill-rule="nonzero"></path>
            <path d="M18.1652742,12.0086692 C18.1121966,12.0978462 18.1829642,12.187 18.3244995,12.187 C18.4837324,12.187 18.60757,12.0978462 18.60757,12.0086692 C18.60757,11.9016692 18.5367947,11.8303385 18.4483447,11.8303385 C18.3421895,11.8303385 18.2183518,11.9016692 18.1652742,12.0086692 Z" id="Shape" fill="#000000" fill-rule="nonzero"></path>
            <path d="M19.4037116,14.5230769 C19.3329439,14.6300769 19.3152539,14.7370769 19.3329439,14.7549231 C19.4744868,14.8975846 22.1459821,14.6300769 22.1459821,14.4874308 C22.1459821,14.2556154 19.5275568,14.2912692 19.4037116,14.5230769 Z" id="Shape" fill="#000000" fill-rule="nonzero"></path>
            <path d="M19.0498658,15.5930769 C18.9791058,15.7000769 18.9614158,15.8070538 18.9791058,15.8427231 C19.1206411,15.9675385 22.1282921,15.7000769 22.0398268,15.5573846 C21.8982916,15.3255692 19.1737263,15.3612308 19.0498658,15.5930769 Z" id="Shape" fill="#000000" fill-rule="nonzero"></path>
            <path d="M28.69203,14.6835923 C28.69203,14.7905846 29.0812558,14.8619231 29.5589316,14.8619231 C30.0366226,14.8619231 30.5496937,14.9154154 30.7089342,14.9689231 C30.8858342,15.0402308 30.9919895,14.9867462 30.9919895,14.8084154 C30.9919895,14.5944231 30.7443066,14.5409231 29.8420174,14.5230769 C29.2051011,14.5230769 28.69203,14.5944231 28.69203,14.6835923 Z" id="Shape" fill="#000000" fill-rule="nonzero"></path>
            <path d="M28.7804953,15.7535385 C28.7097276,15.8605385 29.0281782,15.9318846 29.6120168,15.9318846 C30.1250879,15.9318846 30.7266166,15.9853846 30.9566095,16.0388846 C31.2396876,16.1280462 31.3458353,16.0745385 31.3458353,15.8605385 C31.3458353,15.6287308 31.1335324,15.5752308 30.1250879,15.5752308 C29.4350939,15.5752308 28.8335653,15.6465615 28.7804953,15.7535385 Z" id="Shape" fill="#000000" fill-rule="nonzero"></path>
            <path d="M21.5267558,17.8935 C21.3852205,18.1253077 22.4998203,18.1253077 22.8536584,17.8935 C23.0482789,17.7686692 22.9244184,17.7151538 22.375975,17.7151538 C21.9690592,17.7151538 21.5798334,17.7865 21.5267558,17.8935 Z" id="Shape" fill="#000000" fill-rule="nonzero"></path>
            <path d="M18.7844929,17.8935 C18.64295,17.9826615 18.57219,18.1074923 18.6252676,18.161 C18.7844929,18.3036538 20.1998532,18.054 20.1998532,17.8756615 C20.1998532,17.6616692 19.1206411,17.6795 18.7844929,17.8935 Z" id="Shape" fill="#000000" fill-rule="nonzero"></path>
            <path d="M18.6252676,18.9456154 C18.1475842,19.2487923 18.5191124,19.4271154 19.2975639,19.2666154 C19.8636974,19.1596154 20.0052479,19.0704615 19.828325,18.9456154 C19.5098668,18.7494615 18.9437258,18.7494615 18.6252676,18.9456154 Z" id="Shape" fill="#000000" fill-rule="nonzero"></path>
            <path d="M30.5496937,17.8756615 C30.4258484,18.1074923 30.3904684,18.0896538 31.22199,18.161 C31.5758358,18.1966538 31.8765963,18.161 31.8765963,18.054 C31.8765963,17.9648462 31.7173711,17.8935 31.5404482,17.8935 C31.3458353,17.8935 31.0804547,17.84 30.9389195,17.7865 C30.7973842,17.733 30.6204613,17.7686692 30.5496937,17.8756615 Z" id="Shape" fill="#000000" fill-rule="nonzero"></path>
            <path d="M30.8327642,19.1596154 C31.16892,19.3736154 32.0535192,19.3557692 32.0535192,19.1596154 C32.0535192,19.0526154 31.7173711,18.9991308 31.3281453,18.9991308 C30.8504618,18.9991308 30.6735389,19.0526154 30.8327642,19.1596154 Z" id="Shape" fill="#000000" fill-rule="nonzero"></path>
            <path d="M30.0012426,21.1390769 C29.948165,21.2103846 29.9658474,21.2817308 30.0543203,21.2995615 C30.3373908,21.3173846 30.9035395,21.4065615 31.7527511,21.5492308 C32.3365974,21.6383846 32.5842803,21.6205385 32.5842803,21.4778923 C32.5842803,21.3708923 32.478125,21.2460769 32.3719774,21.1925692 C31.8765963,21.0499231 30.0897079,20.9964077 30.0012426,21.1390769 Z" id="Shape" fill="#000000" fill-rule="nonzero"></path>
            <path d="M30.1958632,22.3160385 C30.0189326,22.4943615 32.6373579,22.8688462 32.8319632,22.6905385 C32.9204284,22.6013615 32.9735061,22.5121923 32.9204284,22.4765385 C32.7788932,22.3338692 30.3197008,22.1912077 30.1958632,22.3160385 Z" id="Shape" fill="#000000" fill-rule="nonzero"></path>
            <path d="M18.2537395,21.2817308 C17.8114361,21.5670538 18.2714218,21.8345385 18.8729505,21.6383846 C19.1737263,21.5492308 19.7575574,21.4065615 20.1998532,21.3173846 C20.9959947,21.1390769 20.9959947,21.1390769 19.7575574,21.1212308 C19.0852611,21.1212308 18.3952671,21.1925692 18.2537395,21.2817308 Z" id="Shape" fill="#000000" fill-rule="nonzero"></path>
            <path d="M18.1829642,22.2090385 C17.7406684,22.4586923 17.8468237,22.6905385 18.3952671,22.6013615 C18.6606553,22.5656923 19.4390992,22.4765385 20.1467832,22.4230308 C20.8544595,22.3516923 21.3852205,22.2268692 21.3321429,22.1555385 C21.2083053,21.9415385 18.5545,21.9950462 18.1829642,22.2090385 Z" id="Shape" fill="#000000" fill-rule="nonzero"></path>
            <path d="M17.5460632,24.7591308 C17.5460632,24.9553077 17.6875908,24.9909538 18.1298789,24.9017923 C19.4744868,24.6343077 19.5983245,24.5273077 18.57219,24.5094615 C17.7760484,24.4916385 17.5460632,24.5451538 17.5460632,24.7591308 Z" id="Shape" fill="#000000" fill-rule="nonzero"></path>
            <path d="M18.1298789,25.5259231 C17.6168232,25.5616154 17.1922097,25.6507692 17.1922097,25.7399231 C17.1922097,26.0430769 17.4929779,26.0787692 18.4483447,25.8647692 C19.5806421,25.5972769 19.4214092,25.4546154 18.1298789,25.5259231 Z" id="Shape" fill="#000000" fill-rule="nonzero"></path>
            <path d="M20.9075447,24.3133077 C20.9075447,24.5273077 21.9513692,24.4916385 22.0752145,24.2776462 C22.1282921,24.2063077 21.8806016,24.135 21.5444534,24.135 C21.1906,24.135 20.9075447,24.2241538 20.9075447,24.3133077 Z" id="Shape" fill="#000000" fill-rule="nonzero"></path>
            <path d="M20.9075447,25.2049538 C20.9075447,25.2941154 21.1552276,25.3297692 21.4913758,25.2584615 C22.2875174,25.1157692 22.3228974,25.0266154 21.5621434,25.0266154 C21.2083053,25.0266154 20.9075447,25.0979538 20.9075447,25.2049538 Z" id="Shape" fill="#000000" fill-rule="nonzero"></path>
            <path d="M30.4612361,25.0979538 C30.4612361,25.6507692 30.5496937,26.0965923 30.6381589,26.0965923 C30.7443066,26.0965923 30.8150742,25.7042692 30.8150742,25.2227692 C30.8150742,24.7234615 30.7443066,24.2776462 30.6381589,24.2241538 C30.5320037,24.1528154 30.4612361,24.4916385 30.4612361,25.0979538 Z" id="Shape" fill="#000000" fill-rule="nonzero"></path>
            <path d="M31.4519905,24.6521538 C31.3635253,24.7948 32.9558237,25.0623077 33.0973513,24.9374615 C33.1150413,24.9017923 33.0973513,24.7948 33.0265684,24.6878 C32.9027384,24.4559692 31.5758358,24.4203077 31.4519905,24.6521538 Z" id="Shape" fill="#000000" fill-rule="nonzero"></path>
            <path d="M31.6112158,25.9182615 C31.6642934,26.0074308 32.1065968,26.0965923 32.6019703,26.0965923 C33.0796537,26.0965923 33.4688795,26.0074308 33.4688795,25.9182615 C33.4688795,25.8112692 33.0265684,25.7399231 32.478125,25.7399231 C31.8765963,25.7399231 31.5404482,25.8112692 31.6112158,25.9182615 Z" id="Shape" fill="#000000" fill-rule="nonzero"></path>
            <path d="M19.7221697,27.6480462 C19.4037116,27.6837154 19.1383311,27.8085385 19.1383311,27.9155385 C19.1383311,28.0225385 19.3506416,28.0582 19.6867974,27.9868692 C19.9875579,27.9333846 20.3944737,27.8798769 20.5713889,27.8798769 C20.7660018,27.8798769 20.9075447,27.7906923 20.9075447,27.7015385 C20.9075447,27.5232308 20.7836842,27.5232308 19.7221697,27.6480462 Z" id="Shape" fill="#000000" fill-rule="nonzero"></path>
            <path d="M19.5452545,28.5396923 C19.3152539,28.5753538 19.1383311,28.7001846 19.1383311,28.8071769 C19.1383311,28.8963462 19.2621763,28.932 19.4214092,28.8785154 C19.5806421,28.825 20.0052479,28.7715154 20.3944737,28.7715154 C20.7660018,28.7715154 21.08446,28.6823538 21.08446,28.5931846 C21.08446,28.4148462 20.3060084,28.3970231 19.5452545,28.5396923 Z" id="Shape" fill="#000000" fill-rule="nonzero"></path>
            <path d="M19.4921768,30.9114615 C19.4921768,31.1254615 19.6337121,31.1254615 20.1113955,30.9114615 C20.4298537,30.7687923 20.4121637,30.7509538 19.9875579,30.7509538 C19.7044797,30.7331231 19.4921768,30.8044615 19.4921768,30.9114615 Z" id="Shape" fill="#000000" fill-rule="nonzero"></path>
            <path d="M15.8653071,31.2681077 C15.7414618,31.4642692 16.1483776,31.4642692 16.9268368,31.2681077 C17.4222026,31.1432769 17.4222026,31.1254615 16.7145263,31.1076154 C16.3076105,31.1076154 15.9183847,31.1611154 15.8653071,31.2681077 Z" id="Shape" fill="#000000" fill-rule="nonzero"></path>
            <path d="M19.0498658,31.9814231 C18.9791058,32.1062538 19.1029511,32.1240769 19.4390992,32.0527692 C20.1113955,31.8922615 20.1821632,31.8030769 19.6160221,31.8030769 C19.3683316,31.8030769 19.1029511,31.8922615 19.0498658,31.9814231 Z" id="Shape" fill="#000000" fill-rule="nonzero"></path>
            <path d="M15.3876237,32.1240769 C14.803785,32.2489231 15.0691579,32.5164077 15.6530042,32.3915769 C16.5022158,32.2310769 16.8560616,31.9992538 16.2191605,32.0349231 C15.9360747,32.0349231 15.5468489,32.0884154 15.3876237,32.1240769 Z" id="Shape" fill="#000000" fill-rule="nonzero"></path>
            <path d="M18.8729505,32.8730769 C18.7491053,33.0870769 19.0852611,33.0870769 19.5806421,32.8730769 C19.8990926,32.7303846 19.8814026,32.7125692 19.4567816,32.7125692 C19.1914087,32.6947385 18.9260282,32.7660769 18.8729505,32.8730769 Z" id="Shape" fill="#000000" fill-rule="nonzero"></path>
            <path d="M15.0868632,33.0335385 C14.7507074,33.0870769 14.4322568,33.2475385 14.3968692,33.3902308 C14.3261016,33.5863846 14.3968692,33.6042077 14.6445597,33.4972308 C14.8391726,33.4258769 15.1930184,33.3188846 15.4760737,33.2653846 C15.7414618,33.2297154 15.9537724,33.1227231 15.9537724,33.0335385 C15.9537724,32.9443846 15.9006947,32.8908923 15.8299271,32.8908923 C15.7414618,32.9087308 15.4230113,32.9622308 15.0868632,33.0335385 Z" id="Shape" fill="#000000" fill-rule="nonzero"></path>
            <path d="M31.2396876,27.8620385 C31.3635253,28.0582 32.4073574,28.2186923 32.4073574,28.0403846 C32.4073574,27.9690385 32.2835121,27.8620385 32.1242868,27.8085385 C31.6996658,27.6480462 31.1335324,27.6837154 31.2396876,27.8620385 Z" id="Shape" fill="#000000" fill-rule="nonzero"></path>
            <path d="M32.9204284,27.7906923 C32.7258079,27.9690385 33.0442737,29.5561538 33.2742666,29.6274923 C33.4688795,29.6988231 33.5042671,29.574 33.4158018,29.1281538 C33.3450342,28.8071769 33.2919566,28.3613615 33.2919566,28.1295385 C33.2919566,27.7372308 33.1150413,27.5767154 32.9204284,27.7906923 Z" id="Shape" fill="#000000" fill-rule="nonzero"></path>
            <path d="M31.4166105,28.7893462 C31.3635253,28.8785154 31.5227658,28.9498462 31.7704487,28.9498462 C32.3188921,28.9498462 32.3719774,28.8428462 31.8765963,28.718 C31.6819834,28.6645154 31.4696805,28.7001846 31.4166105,28.7893462 Z" id="Shape" fill="#000000" fill-rule="nonzero"></path>
            <path d="M16.8383716,27.9868692 C16.8383716,28.1830308 16.9268368,28.2365385 17.1214421,28.1652 C17.280675,28.1116923 17.5106679,28.0582 17.6522032,28.0582 C17.7937384,28.0582 17.8998937,27.9690385 17.8998937,27.8798769 C17.8998937,27.7728769 17.6698932,27.7015385 17.3691326,27.7015385 C16.9975968,27.7015385 16.8383716,27.7906923 16.8383716,27.9868692 Z" id="Shape" fill="#000000" fill-rule="nonzero"></path>
            <path d="M16.8383716,28.7715154 C16.8383716,28.8606923 17.0329921,28.9498462 17.280675,28.9498462 C17.5283579,28.9498462 17.7229632,28.8606923 17.7229632,28.7715154 C17.7229632,28.6645154 17.5283579,28.5931846 17.280675,28.5931846 C17.0329921,28.5931846 16.8383716,28.6645154 16.8383716,28.7715154 Z" id="Shape" fill="#000000" fill-rule="nonzero"></path>
            <path d="M33.4688795,31.4464385 C33.4688795,31.5356154 33.71657,31.6247692 34.0173305,31.6247692 C34.3180987,31.6247692 34.5127116,31.5534308 34.4419439,31.4464385 C34.3888663,31.3394385 34.1411758,31.2681077 33.8934929,31.2681077 C33.6635,31.2681077 33.4688795,31.3394385 33.4688795,31.4464385 Z" id="Shape" fill="#000000" fill-rule="nonzero"></path>
            <path d="M34.0527105,32.4807385 C34.1057958,32.5520769 34.4773316,32.6412308 34.8842474,32.6590769 C35.2911632,32.6947385 35.5742337,32.6412308 35.5388461,32.5520769 C35.4857684,32.4807385 35.1142403,32.3915769 34.7073245,32.3737462 C34.3004087,32.3380769 34.0173305,32.3915769 34.0527105,32.4807385 Z" id="Shape" fill="#000000" fill-rule="nonzero"></path>
            <path d="M34.5480916,33.4080462 C34.4242539,33.4615385 34.8665421,33.6042077 35.5034737,33.6933846 C36.1403747,33.8003846 36.6534458,33.8182 36.6534458,33.7468692 C36.6534458,33.6576923 36.3526853,33.5506923 35.9988395,33.4972308 C35.6273113,33.4436923 35.2026979,33.3545385 35.0434726,33.3367154 C34.8842474,33.3010538 34.6542468,33.3367154 34.5480916,33.4080462 Z" id="Shape" fill="#000000" fill-rule="nonzero"></path>
            <path d="M20.4652337,34.8346923 C20.0052479,35.0308462 21.4559882,35.0308462 22.2344474,34.8346923 C22.6767432,34.7276923 22.5882779,34.692 21.7921363,34.692 C21.2613753,34.692 20.6598466,34.7455077 20.4652337,34.8346923 Z" id="Shape" fill="#000000" fill-rule="nonzero"></path>
            <path d="M21.08446,35.7263077 L20.2883184,35.8511538 L21.2259953,35.8689769 C21.8098263,35.8868077 22.1282921,35.8333077 22.0575168,35.7263077 C22.0044468,35.6193077 21.9336868,35.5658154 21.9159816,35.5836538 C21.8982916,35.5836538 21.5267558,35.655 21.08446,35.7263077 Z" id="Shape" fill="#000000" fill-rule="nonzero"></path>
            <path d="M16.3076105,35.227 C14.6445597,35.5123077 14.5384045,35.548 14.5384045,35.8154615 C14.5384045,35.9581538 14.6268697,36.0829692 14.7153274,36.0829692 C14.8214826,36.0829692 14.8922579,36.0116385 14.8922579,35.9403077 C14.8922579,35.762 16.8914492,35.3696538 17.8291184,35.3696538 C18.3421895,35.3696538 18.4483447,35.3161538 18.2537395,35.1913308 C17.9529789,34.9951538 17.6522032,34.9951538 16.3076105,35.227 Z" id="Shape" fill="#000000" fill-rule="nonzero"></path>
            <path d="M16.3076105,36.2613077 C14.9453203,36.4039615 14.3614816,36.5823077 14.3614816,36.8319462 C14.3614816,36.9389462 14.5207145,36.9746154 14.7683974,36.9032769 C14.9807079,36.8319462 15.8476171,36.6714615 16.6968363,36.5466154 C17.5460632,36.4217923 18.3068095,36.2791308 18.3598947,36.2078 C18.5014224,36.0651538 17.9706613,36.0829692 16.3076105,36.2613077 Z" id="Shape" fill="#000000" fill-rule="nonzero"></path>
            <path d="M17.6522032,38.6865615 C17.5637455,38.9362308 17.6168232,38.9540538 18.0237389,38.8470769 C18.3068095,38.7578923 18.8729505,38.6508923 19.3152539,38.5795615 C20.0760079,38.4547385 20.0583179,38.4547385 18.9437258,38.4190769 C18.0060413,38.4012308 17.7406684,38.4547385 17.6522032,38.6865615 Z" id="Shape" fill="#000000" fill-rule="nonzero"></path>
            <path d="M15.0868632,38.7400769 C14.8391726,38.8113846 14.6268697,38.9540538 14.5737921,39.0788846 C14.5030245,39.3285385 14.8214826,39.3642077 14.9807079,39.1145385 C15.0337855,39.0075385 15.3168561,38.9362308 15.6176166,38.9362308 C15.9006947,38.9362308 16.1306876,38.8470769 16.1306876,38.7578923 C16.1306876,38.5617308 15.7414618,38.5439 15.0868632,38.7400769 Z" id="Shape" fill="#000000" fill-rule="nonzero"></path>
            <path d="M18.1298789,39.5960385 C17.7583584,39.6495385 17.5460632,39.7743615 17.5460632,39.9526923 C17.5460632,40.1488462 17.6345132,40.1845385 17.8645061,40.0775385 C18.0237389,40.0061923 18.5014224,39.9170231 18.9083382,39.8635385 C19.3329439,39.8278462 19.6160221,39.7208462 19.5629368,39.6316923 C19.4744868,39.4712077 19.1914087,39.4712077 18.1298789,39.5960385 Z" id="Shape" fill="#000000" fill-rule="nonzero"></path>
            <path d="M14.7861026,40.1131846 C14.4676368,40.3806923 14.4853268,40.3806923 15.0514755,40.2915154 C15.3699337,40.238 15.7414618,40.1845385 15.8476171,40.1845385 C16.0953,40.1845385 15.5822289,39.8278462 15.3168561,39.8278462 C15.2283984,39.8278462 14.9807079,39.9526923 14.7861026,40.1131846 Z" id="Shape" fill="#000000" fill-rule="nonzero"></path>
            <path d="M32.3188921,35.3518231 C32.2658221,35.4588231 32.3542797,35.5658154 32.5312026,35.5658154 C33.8404153,35.6728154 34.3711763,35.7441538 35.1142403,35.9046385 C35.5742337,35.9938077 36.0342271,36.0829692 36.1226847,36.0829692 C36.3349876,36.0829692 36.3703753,35.548 36.1757624,35.548 C35.2734579,35.5123077 33.5927247,35.3518231 33.0973513,35.2804923 C32.7081255,35.2091538 32.3896674,35.2448462 32.3188921,35.3518231 Z" id="Shape" fill="#000000" fill-rule="nonzero"></path>
            <path d="M32.1419768,36.6179538 C32.1950545,36.7071154 32.6727379,36.7962846 33.1681189,36.7962846 C33.6811824,36.7962846 34.5304016,36.9032769 35.0611626,37.0459231 C35.7865289,37.2421 36.0696071,37.2421 36.1580724,37.0994385 C36.4057553,36.7071154 36.2996,36.6714615 34.8488597,36.5644615 C32.7611955,36.3861308 32.0181316,36.4039615 32.1419768,36.6179538 Z" id="Shape" fill="#000000" fill-rule="nonzero"></path>
            <path d="M35.0611626,39.2750462 C35.0611626,39.4712077 36.28191,39.7208462 36.4411429,39.5603846 C36.6180658,39.3820385 36.0872895,39.1145385 35.5565437,39.1145385 C35.2734579,39.1145385 35.0611626,39.1858769 35.0611626,39.2750462 Z" id="Shape" fill="#000000" fill-rule="nonzero"></path>
            <path d="M35.0611626,40.5233385 C35.0611626,40.7195 36.1049947,40.88 36.21115,40.7195 C36.26422,40.6481538 36.24653,40.5411538 36.1757624,40.4698462 C35.9988395,40.3093462 35.0611626,40.345 35.0611626,40.5233385 Z" id="Shape" fill="#000000" fill-rule="nonzero"></path>
            <path d="M16.3076105,42.3957692 C14.9453203,42.5562846 14.6268697,42.6454615 14.5737921,42.8951077 C14.5030245,43.2696154 14.5737921,43.2874308 15.5999342,42.9664385 C16.04223,42.8416154 16.8914492,42.6632769 17.5106679,42.5919462 C18.1121966,42.5206154 18.60757,42.3957692 18.60757,42.3066154 C18.60757,42.1283077 18.6252676,42.1283077 16.3076105,42.3957692 Z" id="Shape" fill="#000000" fill-rule="nonzero"></path>
            <path d="M15.4583913,43.5370769 C14.5030245,43.5905846 14.3437916,43.6440769 14.3968692,43.8937462 C14.4499468,44.0542308 14.5914821,44.1612308 14.7330174,44.1255692 C15.4230113,43.9294077 16.6614487,43.7689231 17.5106679,43.7689231 C18.0237389,43.7510769 18.4306547,43.6619231 18.4306547,43.5549231 C18.4306547,43.4479231 18.0591189,43.3944231 17.4929779,43.4300769 C16.9799068,43.4657692 16.05992,43.5014231 15.4583913,43.5370769 Z" id="Shape" fill="#000000" fill-rule="nonzero"></path>
            <path d="M33.1150413,42.8237692 C33.1150413,42.9842692 35.9103895,43.2339231 36.1049947,43.0912692 C36.2996,42.9486154 35.9103895,42.8594615 34.5657816,42.7524615 C33.6104147,42.6632769 33.1150413,42.6989462 33.1150413,42.8237692 Z" id="Shape" fill="#000000" fill-rule="nonzero"></path>
            <path d="M32.8673508,44.0899231 C32.7788932,44.2147385 32.9558237,44.2860769 33.4334842,44.2860769 C33.8050276,44.2860769 34.6365568,44.3395615 35.2557755,44.3930769 C36.0872895,44.4822308 36.3349876,44.4643846 36.21115,44.3217308 C35.9457618,44.0185769 33.0265684,43.8224154 32.8673508,44.0899231 Z" id="Shape" fill="#000000" fill-rule="nonzero"></path>
            <path d="M17.3160474,46.0158462 C17.0506745,46.2655077 17.2098921,46.4616692 17.5991255,46.3368462 C17.8114361,46.2655077 18.3068095,46.1585154 18.6960353,46.0693462 C19.4037116,45.9445385 19.4037116,45.9266923 18.4129647,45.9088462 C17.8645061,45.9088462 17.3691326,45.9445385 17.3160474,46.0158462 Z" id="Shape" fill="#000000" fill-rule="nonzero"></path>
            <path d="M17.7052808,47.1393077 C17.3514426,47.3711538 17.6168232,47.5316385 18.0768166,47.3533077 C18.3952671,47.2284615 18.4306547,47.175 18.2183518,47.1036538 C18.0768166,47.0323077 17.8468237,47.068 17.7052808,47.1393077 Z" id="Shape" fill="#000000" fill-rule="nonzero"></path>
            <path d="M18.6960353,47.1393077 C18.64295,47.2284615 18.7491053,47.3176462 18.9437258,47.3176462 C19.1560211,47.3176462 19.3152539,47.2284615 19.3152539,47.1393077 C19.3152539,47.0323077 19.2091063,46.961 19.0675711,46.961 C18.9260282,46.961 18.7491053,47.0323077 18.6960353,47.1393077 Z" id="Shape" fill="#000000" fill-rule="nonzero"></path>
            <path d="M17.8998937,48.0487692 C17.8998937,48.1201231 18.2891195,48.1557692 18.7668105,48.1557692 C19.2621763,48.1557692 19.6160221,48.0844615 19.5629368,47.9953077 C19.4567816,47.8348 17.8998937,47.8704615 17.8998937,48.0487692 Z" id="Shape" fill="#000000" fill-rule="nonzero"></path>
            <path d="M14.6799474,46.0158462 C14.5030245,46.0515154 14.3614816,46.212 14.3614816,46.3546923 C14.3614816,46.6578462 14.8391726,46.6935 14.9276303,46.3903385 C14.9807079,46.2655077 15.2460884,46.1941769 15.5822289,46.212 C15.9360747,46.2298462 16.1130053,46.1941769 16.04223,46.0693462 C15.9360747,45.891 15.2460884,45.8553538 14.6799474,46.0158462 Z" id="Shape" fill="#000000" fill-rule="nonzero"></path>
            <path d="M14.7330174,47.3889769 C14.4145592,47.7634615 14.7683974,47.8883077 15.4230113,47.6029692 C15.8653071,47.4246385 15.9360747,47.3533077 15.6883842,47.2463077 C15.2283984,47.068 14.9630179,47.1214846 14.7330174,47.3889769 Z" id="Shape" fill="#000000" fill-rule="nonzero"></path>
            <path d="M35.1142403,46.3903385 C34.3711763,46.4973385 34.6896421,46.7826615 35.5034737,46.747 C35.9457618,46.7291538 36.2996,46.6578462 36.2996,46.5865 C36.2996,46.426 35.6096137,46.319 35.1142403,46.3903385 Z" id="Shape" fill="#000000" fill-rule="nonzero"></path>
            <path d="M35.0611626,47.6564615 C35.6803737,48.0131231 36.1226847,48.0666154 36.1226847,47.7813077 C36.1226847,47.5673077 35.9457618,47.4959692 35.4680784,47.4959692 C35.008085,47.5138077 34.8842474,47.5494615 35.0611626,47.6564615 Z" id="Shape" fill="#000000" fill-rule="nonzero"></path>
            <rect id="Rectangle" x="0" y="0" width="50" height="50"></rect>
        </g>
    </g>
</svg>